<?xml version="1.0" encoding="utf-8" standalone="no"?>
<!DOCTYPE svg PUBLIC "-//W3C//DTD SVG 1.1//EN"
  "http://www.w3.org/Graphics/SVG/1.1/DTD/svg11.dtd">
<svg xmlns:xlink="http://www.w3.org/1999/xlink" width="1416.887613pt" height="597.312688pt" viewBox="0 0 1416.887613 597.312688" xmlns="http://www.w3.org/2000/svg" version="1.1">
 <metadata>
  <rdf:RDF xmlns:dc="http://purl.org/dc/elements/1.1/" xmlns:cc="http://creativecommons.org/ns#" xmlns:rdf="http://www.w3.org/1999/02/22-rdf-syntax-ns#">
   <cc:Work>
    <dc:type rdf:resource="http://purl.org/dc/dcmitype/StillImage"/>
    <dc:date>2022-07-07T17:43:07.017730</dc:date>
    <dc:format>image/svg+xml</dc:format>
    <dc:creator>
     <cc:Agent>
      <dc:title>Matplotlib v3.5.2, https://matplotlib.org/</dc:title>
     </cc:Agent>
    </dc:creator>
   </cc:Work>
  </rdf:RDF>
 </metadata>
 <defs>
  <style type="text/css">*{stroke-linejoin: round; stroke-linecap: butt}</style>
 </defs>
 <g id="figure_1">
  <g id="patch_1">
   <path d="M 0 597.312688 
L 1416.887613 597.312688 
L 1416.887613 0 
L 0 0 
z
" style="fill: #ffffff; stroke: #ffffff; stroke-linejoin: miter"/>
  </g>
  <g id="axes_1">
   <g id="patch_2">
    <path d="M 38.393938 561.6 
L 1154.393937 561.6 
L 1154.393937 7.2 
L 38.393938 7.2 
z
" style="fill: #ffffff; stroke: #7f7f7f; stroke-linejoin: miter"/>
   </g>
   <g id="matplotlib.axis_1">
    <g id="xtick_1">
     <g id="line2d_1">
      <path d="M 89.12121 561.6 
L 89.12121 7.2 
" clip-path="url(#p604f8e579f)" style="fill: none; stroke: #e5e5e5; stroke-width: 0.8"/>
     </g>
     <g id="line2d_2">
      <path d="M 89.12121 561.6 
" style="fill: none; stroke: #000000; stroke-width: 1.5"/>
      <defs>
       <path id="mc4cc9395b4" d="M 0 0 
L 0 2.75 
" style="stroke: #333333"/>
      </defs>
      <g>
       <use xlink:href="#mc4cc9395b4" x="89.12121" y="561.6" style="stroke: #333333"/>
      </g>
     </g>
     <g id="text_1">
      <text style="fill: #4d4d4d; font: 8.8px 'Dejavu Sans'; text-anchor: middle" x="89.12121" y="573.236625" transform="rotate(-0, 89.12121, 573.236625)">1970</text>
     </g>
    </g>
    <g id="xtick_2">
     <g id="line2d_3">
      <path d="M 451.458873 561.6 
L 451.458873 7.2 
" clip-path="url(#p604f8e579f)" style="fill: none; stroke: #e5e5e5; stroke-width: 0.8"/>
     </g>
     <g id="line2d_4">
      <path d="M 451.458873 561.6 
" style="fill: none; stroke: #000000; stroke-width: 1.5"/>
      <g>
       <use xlink:href="#mc4cc9395b4" x="451.458873" y="561.6" style="stroke: #333333"/>
      </g>
     </g>
     <g id="text_2">
      <text style="fill: #4d4d4d; font: 8.8px 'Dejavu Sans'; text-anchor: middle" x="451.458873" y="573.236625" transform="rotate(-0, 451.458873, 573.236625)">1975</text>
     </g>
    </g>
    <g id="xtick_3">
     <g id="line2d_5">
      <path d="M 813.796535 561.6 
L 813.796535 7.2 
" clip-path="url(#p604f8e579f)" style="fill: none; stroke: #e5e5e5; stroke-width: 0.8"/>
     </g>
     <g id="line2d_6">
      <path d="M 813.796535 561.6 
" style="fill: none; stroke: #000000; stroke-width: 1.5"/>
      <g>
       <use xlink:href="#mc4cc9395b4" x="813.796535" y="561.6" style="stroke: #333333"/>
      </g>
     </g>
     <g id="text_3">
      <text style="fill: #4d4d4d; font: 8.8px 'Dejavu Sans'; text-anchor: middle" x="813.796535" y="573.236625" transform="rotate(-0, 813.796535, 573.236625)">1980</text>
     </g>
    </g>
    <g id="xtick_4">
     <g id="line2d_7">
      <path d="M 270.290041 561.6 
L 270.290041 7.2 
" clip-path="url(#p604f8e579f)" style="fill: none; stroke: #fafafa"/>
     </g>
    </g>
    <g id="xtick_5">
     <g id="line2d_8">
      <path d="M 632.627704 561.6 
L 632.627704 7.2 
" clip-path="url(#p604f8e579f)" style="fill: none; stroke: #fafafa"/>
     </g>
    </g>
    <g id="xtick_6">
     <g id="line2d_9">
      <path d="M 994.965366 561.6 
L 994.965366 7.2 
" clip-path="url(#p604f8e579f)" style="fill: none; stroke: #fafafa"/>
     </g>
    </g>
    <g id="text_4">
     <text style="font: 11px 'Dejavu Sans'; text-anchor: middle" x="578.393937" y="587.825031" transform="rotate(-0, 578.393937, 587.825031)">anho</text>
    </g>
   </g>
   <g id="matplotlib.axis_2">
    <g id="ytick_1">
     <g id="line2d_10">
      <path d="M 38.393938 536.4 
L 1154.393937 536.4 
" clip-path="url(#p604f8e579f)" style="fill: none; stroke: #e5e5e5; stroke-width: 0.8"/>
     </g>
     <g id="line2d_11">
      <path d="M 38.393938 536.4 
" style="fill: none; stroke: #000000; stroke-width: 1.5"/>
      <defs>
       <path id="ma9dc29f102" d="M 0 0 
L -2.75 0 
" style="stroke: #333333"/>
      </defs>
      <g>
       <use xlink:href="#ma9dc29f102" x="38.393938" y="536.4" style="stroke: #333333"/>
      </g>
     </g>
     <g id="text_5">
      <text style="fill: #4d4d4d; font: 8.8px 'Dejavu Sans'; text-anchor: end" x="33.443938" y="538.82825" transform="rotate(-0, 33.443938, 538.82825)">4</text>
     </g>
    </g>
    <g id="ytick_2">
     <g id="line2d_12">
      <path d="M 38.393938 368.4 
L 1154.393937 368.4 
" clip-path="url(#p604f8e579f)" style="fill: none; stroke: #e5e5e5; stroke-width: 0.8"/>
     </g>
     <g id="line2d_13">
      <path d="M 38.393938 368.4 
" style="fill: none; stroke: #000000; stroke-width: 1.5"/>
      <g>
       <use xlink:href="#ma9dc29f102" x="38.393938" y="368.4" style="stroke: #333333"/>
      </g>
     </g>
     <g id="text_6">
      <text style="fill: #4d4d4d; font: 8.8px 'Dejavu Sans'; text-anchor: end" x="33.443938" y="370.82825" transform="rotate(-0, 33.443938, 370.82825)">8</text>
     </g>
    </g>
    <g id="ytick_3">
     <g id="line2d_14">
      <path d="M 38.393938 200.4 
L 1154.393937 200.4 
" clip-path="url(#p604f8e579f)" style="fill: none; stroke: #e5e5e5; stroke-width: 0.8"/>
     </g>
     <g id="line2d_15">
      <path d="M 38.393938 200.4 
" style="fill: none; stroke: #000000; stroke-width: 1.5"/>
      <g>
       <use xlink:href="#ma9dc29f102" x="38.393938" y="200.4" style="stroke: #333333"/>
      </g>
     </g>
     <g id="text_7">
      <text style="fill: #4d4d4d; font: 8.8px 'Dejavu Sans'; text-anchor: end" x="33.443938" y="202.82825" transform="rotate(-0, 33.443938, 202.82825)">12</text>
     </g>
    </g>
    <g id="ytick_4">
     <g id="line2d_16">
      <path d="M 38.393938 32.4 
L 1154.393937 32.4 
" clip-path="url(#p604f8e579f)" style="fill: none; stroke: #e5e5e5; stroke-width: 0.8"/>
     </g>
     <g id="line2d_17">
      <path d="M 38.393938 32.4 
" style="fill: none; stroke: #000000; stroke-width: 1.5"/>
      <g>
       <use xlink:href="#ma9dc29f102" x="38.393938" y="32.4" style="stroke: #333333"/>
      </g>
     </g>
     <g id="text_8">
      <text style="fill: #4d4d4d; font: 8.8px 'Dejavu Sans'; text-anchor: end" x="33.443938" y="34.82825" transform="rotate(-0, 33.443938, 34.82825)">16</text>
     </g>
    </g>
    <g id="ytick_5">
     <g id="line2d_18">
      <path d="M 38.393938 452.4 
L 1154.393937 452.4 
" clip-path="url(#p604f8e579f)" style="fill: none; stroke: #fafafa"/>
     </g>
    </g>
    <g id="ytick_6">
     <g id="line2d_19">
      <path d="M 38.393938 284.4 
L 1154.393937 284.4 
" clip-path="url(#p604f8e579f)" style="fill: none; stroke: #fafafa"/>
     </g>
    </g>
    <g id="ytick_7">
     <g id="line2d_20">
      <path d="M 38.393938 116.4 
L 1154.393937 116.4 
" clip-path="url(#p604f8e579f)" style="fill: none; stroke: #fafafa"/>
     </g>
    </g>
    <g id="text_9">
     <text style="font: 11px 'Dejavu Sans'; text-anchor: middle" x="15.558281" y="280.8" transform="rotate(-90, 15.558281, 280.8)">victimas</text>
    </g>
   </g>
   <g id="PathCollection_1">
    <path d="M 958.7316 432.998787 
C 964.724868 432.998787 970.473474 430.617636 974.711355 426.379755 
C 978.949236 422.141875 981.330386 416.393268 981.330386 410.4 
C 981.330386 404.406732 978.949236 398.658125 974.711355 394.420245 
C 970.473474 390.182364 964.724868 387.801213 958.7316 387.801213 
C 952.738332 387.801213 946.989725 390.182364 942.751845 394.420245 
C 938.513964 398.658125 936.132813 404.406732 936.132813 410.4 
C 936.132813 416.393268 938.513964 422.141875 942.751845 426.379755 
C 946.989725 430.617636 952.738332 432.998787 958.7316 432.998787 
z
" clip-path="url(#p604f8e579f)" style="fill: #5770db; fill-opacity: 0.501961; stroke: #5770db; stroke-opacity: 0.501961; stroke-width: 0.886227"/>
    <path d="M 89.12121 558.998787 
C 95.114478 558.998787 100.863085 556.617636 105.100965 552.379755 
C 109.338846 548.141875 111.719997 542.393268 111.719997 536.4 
C 111.719997 530.406732 109.338846 524.658125 105.100965 520.420245 
C 100.863085 516.182364 95.114478 513.801213 89.12121 513.801213 
C 83.127942 513.801213 77.379336 516.182364 73.141455 520.420245 
C 68.903574 524.658125 66.522424 530.406732 66.522424 536.4 
C 66.522424 542.393268 68.903574 548.141875 73.141455 552.379755 
C 77.379336 556.617636 83.127942 558.998787 89.12121 558.998787 
z
" clip-path="url(#p604f8e579f)" style="fill: #57d3db; fill-opacity: 0.501961; stroke: #57d3db; stroke-opacity: 0.501961; stroke-width: 0.886227"/>
    <path d="M 89.12121 558.998787 
C 95.114478 558.998787 100.863085 556.617636 105.100965 552.379755 
C 109.338846 548.141875 111.719997 542.393268 111.719997 536.4 
C 111.719997 530.406732 109.338846 524.658125 105.100965 520.420245 
C 100.863085 516.182364 95.114478 513.801213 89.12121 513.801213 
C 83.127942 513.801213 77.379336 516.182364 73.141455 520.420245 
C 68.903574 524.658125 66.522424 530.406732 66.522424 536.4 
C 66.522424 542.393268 68.903574 548.141875 73.141455 552.379755 
C 77.379336 556.617636 83.127942 558.998787 89.12121 558.998787 
z
" clip-path="url(#p604f8e579f)" style="fill: #57d3db; fill-opacity: 0.501961; stroke: #57d3db; stroke-opacity: 0.501961; stroke-width: 0.886227"/>
    <path d="M 89.12121 474.998787 
C 95.114478 474.998787 100.863085 472.617636 105.100965 468.379755 
C 109.338846 464.141875 111.719997 458.393268 111.719997 452.4 
C 111.719997 446.406732 109.338846 440.658125 105.100965 436.420245 
C 100.863085 432.182364 95.114478 429.801213 89.12121 429.801213 
C 83.127942 429.801213 77.379336 432.182364 73.141455 436.420245 
C 68.903574 440.658125 66.522424 446.406732 66.522424 452.4 
C 66.522424 458.393268 68.903574 464.141875 73.141455 468.379755 
C 77.379336 472.617636 83.127942 474.998787 89.12121 474.998787 
z
" clip-path="url(#p604f8e579f)" style="fill: #db57b2; fill-opacity: 0.501961; stroke: #db57b2; stroke-opacity: 0.501961; stroke-width: 0.886227"/>
    <path d="M 89.12121 516.998787 
C 95.114478 516.998787 100.863085 514.617636 105.100965 510.379755 
C 109.338846 506.141875 111.719997 500.393268 111.719997 494.4 
C 111.719997 488.406732 109.338846 482.658125 105.100965 478.420245 
C 100.863085 474.182364 95.114478 471.801213 89.12121 471.801213 
C 83.127942 471.801213 77.379336 474.182364 73.141455 478.420245 
C 68.903574 482.658125 66.522424 488.406732 66.522424 494.4 
C 66.522424 500.393268 68.903574 506.141875 73.141455 510.379755 
C 77.379336 514.617636 83.127942 516.998787 89.12121 516.998787 
z
" clip-path="url(#p604f8e579f)" style="fill: #57d3db; fill-opacity: 0.501961; stroke: #57d3db; stroke-opacity: 0.501961; stroke-width: 0.886227"/>
    <path d="M 89.12121 558.998787 
C 95.114478 558.998787 100.863085 556.617636 105.100965 552.379755 
C 109.338846 548.141875 111.719997 542.393268 111.719997 536.4 
C 111.719997 530.406732 109.338846 524.658125 105.100965 520.420245 
C 100.863085 516.182364 95.114478 513.801213 89.12121 513.801213 
C 83.127942 513.801213 77.379336 516.182364 73.141455 520.420245 
C 68.903574 524.658125 66.522424 530.406732 66.522424 536.4 
C 66.522424 542.393268 68.903574 548.141875 73.141455 552.379755 
C 77.379336 556.617636 83.127942 558.998787 89.12121 558.998787 
z
" clip-path="url(#p604f8e579f)" style="fill: #57d3db; fill-opacity: 0.501961; stroke: #57d3db; stroke-opacity: 0.501961; stroke-width: 0.886227"/>
    <path d="M 89.12121 474.998787 
C 95.114478 474.998787 100.863085 472.617636 105.100965 468.379755 
C 109.338846 464.141875 111.719997 458.393268 111.719997 452.4 
C 111.719997 446.406732 109.338846 440.658125 105.100965 436.420245 
C 100.863085 432.182364 95.114478 429.801213 89.12121 429.801213 
C 83.127942 429.801213 77.379336 432.182364 73.141455 436.420245 
C 68.903574 440.658125 66.522424 446.406732 66.522424 452.4 
C 66.522424 458.393268 68.903574 464.141875 73.141455 468.379755 
C 77.379336 472.617636 83.127942 474.998787 89.12121 474.998787 
z
" clip-path="url(#p604f8e579f)" style="fill: #db57b2; fill-opacity: 0.501961; stroke: #db57b2; stroke-opacity: 0.501961; stroke-width: 0.886227"/>
    <path d="M 161.588743 558.998787 
C 167.582011 558.998787 173.330617 556.617636 177.568498 552.379755 
C 181.806379 548.141875 184.187529 542.393268 184.187529 536.4 
C 184.187529 530.406732 181.806379 524.658125 177.568498 520.420245 
C 173.330617 516.182364 167.582011 513.801213 161.588743 513.801213 
C 155.595474 513.801213 149.846868 516.182364 145.608987 520.420245 
C 141.371107 524.658125 138.989956 530.406732 138.989956 536.4 
C 138.989956 542.393268 141.371107 548.141875 145.608987 552.379755 
C 149.846868 556.617636 155.595474 558.998787 161.588743 558.998787 
z
" clip-path="url(#p604f8e579f)" style="fill: #a157db; fill-opacity: 0.501961; stroke: #a157db; stroke-opacity: 0.501961; stroke-width: 0.886227"/>
    <path d="M 234.056275 558.998787 
C 240.049543 558.998787 245.79815 556.617636 250.03603 552.379755 
C 254.273911 548.141875 256.655062 542.393268 256.655062 536.4 
C 256.655062 530.406732 254.273911 524.658125 250.03603 520.420245 
C 245.79815 516.182364 240.049543 513.801213 234.056275 513.801213 
C 228.063007 513.801213 222.314401 516.182364 218.07652 520.420245 
C 213.838639 524.658125 211.457489 530.406732 211.457489 536.4 
C 211.457489 542.393268 213.838639 548.141875 218.07652 552.379755 
C 222.314401 556.617636 228.063007 558.998787 234.056275 558.998787 
z
" clip-path="url(#p604f8e579f)" style="fill: #57d3db; fill-opacity: 0.501961; stroke: #57d3db; stroke-opacity: 0.501961; stroke-width: 0.886227"/>
    <path d="M 451.458873 264.998787 
C 457.452141 264.998787 463.200747 262.617636 467.438628 258.379755 
C 471.676508 254.141875 474.057659 248.393268 474.057659 242.4 
C 474.057659 236.406732 471.676508 230.658125 467.438628 226.420245 
C 463.200747 222.182364 457.452141 219.801213 451.458873 219.801213 
C 445.465604 219.801213 439.716998 222.182364 435.479117 226.420245 
C 431.241237 230.658125 428.860086 236.406732 428.860086 242.4 
C 428.860086 248.393268 431.241237 254.141875 435.479117 258.379755 
C 439.716998 262.617636 445.465604 264.998787 451.458873 264.998787 
z
" clip-path="url(#p604f8e579f)" style="fill: #57d3db; fill-opacity: 0.501961; stroke: #57d3db; stroke-opacity: 0.501961; stroke-width: 0.886227"/>
    <path d="M 523.926405 558.998787 
C 529.919673 558.998787 535.66828 556.617636 539.90616 552.379755 
C 544.144041 548.141875 546.525192 542.393268 546.525192 536.4 
C 546.525192 530.406732 544.144041 524.658125 539.90616 520.420245 
C 535.66828 516.182364 529.919673 513.801213 523.926405 513.801213 
C 517.933137 513.801213 512.18453 516.182364 507.94665 520.420245 
C 503.708769 524.658125 501.327618 530.406732 501.327618 536.4 
C 501.327618 542.393268 503.708769 548.141875 507.94665 552.379755 
C 512.18453 556.617636 517.933137 558.998787 523.926405 558.998787 
z
" clip-path="url(#p604f8e579f)" style="fill: #a157db; fill-opacity: 0.501961; stroke: #a157db; stroke-opacity: 0.501961; stroke-width: 0.886227"/>
    <path d="M 596.393937 516.998787 
C 602.387206 516.998787 608.135812 514.617636 612.373693 510.379755 
C 616.611573 506.141875 618.992724 500.393268 618.992724 494.4 
C 618.992724 488.406732 616.611573 482.658125 612.373693 478.420245 
C 608.135812 474.182364 602.387206 471.801213 596.393937 471.801213 
C 590.400669 471.801213 584.652063 474.182364 580.414182 478.420245 
C 576.176302 482.658125 573.795151 488.406732 573.795151 494.4 
C 573.795151 500.393268 576.176302 506.141875 580.414182 510.379755 
C 584.652063 514.617636 590.400669 516.998787 596.393937 516.998787 
z
" clip-path="url(#p604f8e579f)" style="fill: #a157db; fill-opacity: 0.501961; stroke: #a157db; stroke-opacity: 0.501961; stroke-width: 0.886227"/>
    <path d="M 596.393937 558.998787 
C 602.387206 558.998787 608.135812 556.617636 612.373693 552.379755 
C 616.611573 548.141875 618.992724 542.393268 618.992724 536.4 
C 618.992724 530.406732 616.611573 524.658125 612.373693 520.420245 
C 608.135812 516.182364 602.387206 513.801213 596.393937 513.801213 
C 590.400669 513.801213 584.652063 516.182364 580.414182 520.420245 
C 576.176302 524.658125 573.795151 530.406732 573.795151 536.4 
C 573.795151 542.393268 576.176302 548.141875 580.414182 552.379755 
C 584.652063 556.617636 590.400669 558.998787 596.393937 558.998787 
z
" clip-path="url(#p604f8e579f)" style="fill: #a157db; fill-opacity: 0.501961; stroke: #a157db; stroke-opacity: 0.501961; stroke-width: 0.886227"/>
    <path d="M 596.393937 558.998787 
C 602.387206 558.998787 608.135812 556.617636 612.373693 552.379755 
C 616.611573 548.141875 618.992724 542.393268 618.992724 536.4 
C 618.992724 530.406732 616.611573 524.658125 612.373693 520.420245 
C 608.135812 516.182364 602.387206 513.801213 596.393937 513.801213 
C 590.400669 513.801213 584.652063 516.182364 580.414182 520.420245 
C 576.176302 524.658125 573.795151 530.406732 573.795151 536.4 
C 573.795151 542.393268 576.176302 548.141875 580.414182 552.379755 
C 584.652063 556.617636 590.400669 558.998787 596.393937 558.998787 
z
" clip-path="url(#p604f8e579f)" style="fill: #a157db; fill-opacity: 0.501961; stroke: #a157db; stroke-opacity: 0.501961; stroke-width: 0.886227"/>
    <path d="M 668.86147 516.998787 
C 674.854738 516.998787 680.603345 514.617636 684.841225 510.379755 
C 689.079106 506.141875 691.460257 500.393268 691.460257 494.4 
C 691.460257 488.406732 689.079106 482.658125 684.841225 478.420245 
C 680.603345 474.182364 674.854738 471.801213 668.86147 471.801213 
C 662.868202 471.801213 657.119595 474.182364 652.881715 478.420245 
C 648.643834 482.658125 646.262683 488.406732 646.262683 494.4 
C 646.262683 500.393268 648.643834 506.141875 652.881715 510.379755 
C 657.119595 514.617636 662.868202 516.998787 668.86147 516.998787 
z
" clip-path="url(#p604f8e579f)" style="fill: #a157db; fill-opacity: 0.501961; stroke: #a157db; stroke-opacity: 0.501961; stroke-width: 0.886227"/>
    <path d="M 668.86147 558.998787 
C 674.854738 558.998787 680.603345 556.617636 684.841225 552.379755 
C 689.079106 548.141875 691.460257 542.393268 691.460257 536.4 
C 691.460257 530.406732 689.079106 524.658125 684.841225 520.420245 
C 680.603345 516.182364 674.854738 513.801213 668.86147 513.801213 
C 662.868202 513.801213 657.119595 516.182364 652.881715 520.420245 
C 648.643834 524.658125 646.262683 530.406732 646.262683 536.4 
C 646.262683 542.393268 648.643834 548.141875 652.881715 552.379755 
C 657.119595 556.617636 662.868202 558.998787 668.86147 558.998787 
z
" clip-path="url(#p604f8e579f)" style="fill: #a157db; fill-opacity: 0.501961; stroke: #a157db; stroke-opacity: 0.501961; stroke-width: 0.886227"/>
    <path d="M 668.86147 516.998787 
C 674.854738 516.998787 680.603345 514.617636 684.841225 510.379755 
C 689.079106 506.141875 691.460257 500.393268 691.460257 494.4 
C 691.460257 488.406732 689.079106 482.658125 684.841225 478.420245 
C 680.603345 474.182364 674.854738 471.801213 668.86147 471.801213 
C 662.868202 471.801213 657.119595 474.182364 652.881715 478.420245 
C 648.643834 482.658125 646.262683 488.406732 646.262683 494.4 
C 646.262683 500.393268 648.643834 506.141875 652.881715 510.379755 
C 657.119595 514.617636 662.868202 516.998787 668.86147 516.998787 
z
" clip-path="url(#p604f8e579f)" style="fill: #a157db; fill-opacity: 0.501961; stroke: #a157db; stroke-opacity: 0.501961; stroke-width: 0.886227"/>
    <path d="M 668.86147 558.998787 
C 674.854738 558.998787 680.603345 556.617636 684.841225 552.379755 
C 689.079106 548.141875 691.460257 542.393268 691.460257 536.4 
C 691.460257 530.406732 689.079106 524.658125 684.841225 520.420245 
C 680.603345 516.182364 674.854738 513.801213 668.86147 513.801213 
C 662.868202 513.801213 657.119595 516.182364 652.881715 520.420245 
C 648.643834 524.658125 646.262683 530.406732 646.262683 536.4 
C 646.262683 542.393268 648.643834 548.141875 652.881715 552.379755 
C 657.119595 556.617636 662.868202 558.998787 668.86147 558.998787 
z
" clip-path="url(#p604f8e579f)" style="fill: #a157db; fill-opacity: 0.501961; stroke: #a157db; stroke-opacity: 0.501961; stroke-width: 0.886227"/>
    <path d="M 668.86147 222.998787 
C 674.854738 222.998787 680.603345 220.617636 684.841225 216.379755 
C 689.079106 212.141875 691.460257 206.393268 691.460257 200.4 
C 691.460257 194.406732 689.079106 188.658125 684.841225 184.420245 
C 680.603345 180.182364 674.854738 177.801213 668.86147 177.801213 
C 662.868202 177.801213 657.119595 180.182364 652.881715 184.420245 
C 648.643834 188.658125 646.262683 194.406732 646.262683 200.4 
C 646.262683 206.393268 648.643834 212.141875 652.881715 216.379755 
C 657.119595 220.617636 662.868202 222.998787 668.86147 222.998787 
z
" clip-path="url(#p604f8e579f)" style="fill: #a157db; fill-opacity: 0.501961; stroke: #a157db; stroke-opacity: 0.501961; stroke-width: 0.886227"/>
    <path d="M 668.86147 264.998787 
C 674.854738 264.998787 680.603345 262.617636 684.841225 258.379755 
C 689.079106 254.141875 691.460257 248.393268 691.460257 242.4 
C 691.460257 236.406732 689.079106 230.658125 684.841225 226.420245 
C 680.603345 222.182364 674.854738 219.801213 668.86147 219.801213 
C 662.868202 219.801213 657.119595 222.182364 652.881715 226.420245 
C 648.643834 230.658125 646.262683 236.406732 646.262683 242.4 
C 646.262683 248.393268 648.643834 254.141875 652.881715 258.379755 
C 657.119595 262.617636 662.868202 264.998787 668.86147 264.998787 
z
" clip-path="url(#p604f8e579f)" style="fill: #a157db; fill-opacity: 0.501961; stroke: #a157db; stroke-opacity: 0.501961; stroke-width: 0.886227"/>
    <path d="M 668.86147 516.998787 
C 674.854738 516.998787 680.603345 514.617636 684.841225 510.379755 
C 689.079106 506.141875 691.460257 500.393268 691.460257 494.4 
C 691.460257 488.406732 689.079106 482.658125 684.841225 478.420245 
C 680.603345 474.182364 674.854738 471.801213 668.86147 471.801213 
C 662.868202 471.801213 657.119595 474.182364 652.881715 478.420245 
C 648.643834 482.658125 646.262683 488.406732 646.262683 494.4 
C 646.262683 500.393268 648.643834 506.141875 652.881715 510.379755 
C 657.119595 514.617636 662.868202 516.998787 668.86147 516.998787 
z
" clip-path="url(#p604f8e579f)" style="fill: #a157db; fill-opacity: 0.501961; stroke: #a157db; stroke-opacity: 0.501961; stroke-width: 0.886227"/>
    <path d="M 668.86147 516.998787 
C 674.854738 516.998787 680.603345 514.617636 684.841225 510.379755 
C 689.079106 506.141875 691.460257 500.393268 691.460257 494.4 
C 691.460257 488.406732 689.079106 482.658125 684.841225 478.420245 
C 680.603345 474.182364 674.854738 471.801213 668.86147 471.801213 
C 662.868202 471.801213 657.119595 474.182364 652.881715 478.420245 
C 648.643834 482.658125 646.262683 488.406732 646.262683 494.4 
C 646.262683 500.393268 648.643834 506.141875 652.881715 510.379755 
C 657.119595 514.617636 662.868202 516.998787 668.86147 516.998787 
z
" clip-path="url(#p604f8e579f)" style="fill: #a157db; fill-opacity: 0.501961; stroke: #a157db; stroke-opacity: 0.501961; stroke-width: 0.886227"/>
    <path d="M 741.329002 96.998787 
C 747.322271 96.998787 753.070877 94.617636 757.308758 90.379755 
C 761.546638 86.141875 763.927789 80.393268 763.927789 74.4 
C 763.927789 68.406732 761.546638 62.658125 757.308758 58.420245 
C 753.070877 54.182364 747.322271 51.801213 741.329002 51.801213 
C 735.335734 51.801213 729.587128 54.182364 725.349247 58.420245 
C 721.111367 62.658125 718.730216 68.406732 718.730216 74.4 
C 718.730216 80.393268 721.111367 86.141875 725.349247 90.379755 
C 729.587128 94.617636 735.335734 96.998787 741.329002 96.998787 
z
" clip-path="url(#p604f8e579f)" style="fill: #a157db; fill-opacity: 0.501961; stroke: #a157db; stroke-opacity: 0.501961; stroke-width: 0.886227"/>
    <path d="M 741.329002 558.998787 
C 747.322271 558.998787 753.070877 556.617636 757.308758 552.379755 
C 761.546638 548.141875 763.927789 542.393268 763.927789 536.4 
C 763.927789 530.406732 761.546638 524.658125 757.308758 520.420245 
C 753.070877 516.182364 747.322271 513.801213 741.329002 513.801213 
C 735.335734 513.801213 729.587128 516.182364 725.349247 520.420245 
C 721.111367 524.658125 718.730216 530.406732 718.730216 536.4 
C 718.730216 542.393268 721.111367 548.141875 725.349247 552.379755 
C 729.587128 556.617636 735.335734 558.998787 741.329002 558.998787 
z
" clip-path="url(#p604f8e579f)" style="fill: #a157db; fill-opacity: 0.501961; stroke: #a157db; stroke-opacity: 0.501961; stroke-width: 0.886227"/>
    <path d="M 741.329002 558.998787 
C 747.322271 558.998787 753.070877 556.617636 757.308758 552.379755 
C 761.546638 548.141875 763.927789 542.393268 763.927789 536.4 
C 763.927789 530.406732 761.546638 524.658125 757.308758 520.420245 
C 753.070877 516.182364 747.322271 513.801213 741.329002 513.801213 
C 735.335734 513.801213 729.587128 516.182364 725.349247 520.420245 
C 721.111367 524.658125 718.730216 530.406732 718.730216 536.4 
C 718.730216 542.393268 721.111367 548.141875 725.349247 552.379755 
C 729.587128 556.617636 735.335734 558.998787 741.329002 558.998787 
z
" clip-path="url(#p604f8e579f)" style="fill: #a157db; fill-opacity: 0.501961; stroke: #a157db; stroke-opacity: 0.501961; stroke-width: 0.886227"/>
    <path d="M 741.329002 474.998787 
C 747.322271 474.998787 753.070877 472.617636 757.308758 468.379755 
C 761.546638 464.141875 763.927789 458.393268 763.927789 452.4 
C 763.927789 446.406732 761.546638 440.658125 757.308758 436.420245 
C 753.070877 432.182364 747.322271 429.801213 741.329002 429.801213 
C 735.335734 429.801213 729.587128 432.182364 725.349247 436.420245 
C 721.111367 440.658125 718.730216 446.406732 718.730216 452.4 
C 718.730216 458.393268 721.111367 464.141875 725.349247 468.379755 
C 729.587128 472.617636 735.335734 474.998787 741.329002 474.998787 
z
" clip-path="url(#p604f8e579f)" style="fill: #57d3db; fill-opacity: 0.501961; stroke: #57d3db; stroke-opacity: 0.501961; stroke-width: 0.886227"/>
    <path d="M 741.329002 516.998787 
C 747.322271 516.998787 753.070877 514.617636 757.308758 510.379755 
C 761.546638 506.141875 763.927789 500.393268 763.927789 494.4 
C 763.927789 488.406732 761.546638 482.658125 757.308758 478.420245 
C 753.070877 474.182364 747.322271 471.801213 741.329002 471.801213 
C 735.335734 471.801213 729.587128 474.182364 725.349247 478.420245 
C 721.111367 482.658125 718.730216 488.406732 718.730216 494.4 
C 718.730216 500.393268 721.111367 506.141875 725.349247 510.379755 
C 729.587128 514.617636 735.335734 516.998787 741.329002 516.998787 
z
" clip-path="url(#p604f8e579f)" style="fill: #57d3db; fill-opacity: 0.501961; stroke: #57d3db; stroke-opacity: 0.501961; stroke-width: 0.886227"/>
    <path d="M 741.329002 432.998787 
C 747.322271 432.998787 753.070877 430.617636 757.308758 426.379755 
C 761.546638 422.141875 763.927789 416.393268 763.927789 410.4 
C 763.927789 404.406732 761.546638 398.658125 757.308758 394.420245 
C 753.070877 390.182364 747.322271 387.801213 741.329002 387.801213 
C 735.335734 387.801213 729.587128 390.182364 725.349247 394.420245 
C 721.111367 398.658125 718.730216 404.406732 718.730216 410.4 
C 718.730216 416.393268 721.111367 422.141875 725.349247 426.379755 
C 729.587128 430.617636 735.335734 432.998787 741.329002 432.998787 
z
" clip-path="url(#p604f8e579f)" style="fill: #a157db; fill-opacity: 0.501961; stroke: #a157db; stroke-opacity: 0.501961; stroke-width: 0.886227"/>
    <path d="M 813.796535 558.998787 
C 819.789803 558.998787 825.53841 556.617636 829.77629 552.379755 
C 834.014171 548.141875 836.395322 542.393268 836.395322 536.4 
C 836.395322 530.406732 834.014171 524.658125 829.77629 520.420245 
C 825.53841 516.182364 819.789803 513.801213 813.796535 513.801213 
C 807.803267 513.801213 802.05466 516.182364 797.81678 520.420245 
C 793.578899 524.658125 791.197748 530.406732 791.197748 536.4 
C 791.197748 542.393268 793.578899 548.141875 797.81678 552.379755 
C 802.05466 556.617636 807.803267 558.998787 813.796535 558.998787 
z
" clip-path="url(#p604f8e579f)" style="fill: #a157db; fill-opacity: 0.501961; stroke: #a157db; stroke-opacity: 0.501961; stroke-width: 0.886227"/>
    <path d="M 813.796535 516.998787 
C 819.789803 516.998787 825.53841 514.617636 829.77629 510.379755 
C 834.014171 506.141875 836.395322 500.393268 836.395322 494.4 
C 836.395322 488.406732 834.014171 482.658125 829.77629 478.420245 
C 825.53841 474.182364 819.789803 471.801213 813.796535 471.801213 
C 807.803267 471.801213 802.05466 474.182364 797.81678 478.420245 
C 793.578899 482.658125 791.197748 488.406732 791.197748 494.4 
C 791.197748 500.393268 793.578899 506.141875 797.81678 510.379755 
C 802.05466 514.617636 807.803267 516.998787 813.796535 516.998787 
z
" clip-path="url(#p604f8e579f)" style="fill: #db5f57; fill-opacity: 0.501961; stroke: #db5f57; stroke-opacity: 0.501961; stroke-width: 0.886227"/>
    <path d="M 813.796535 432.998787 
C 819.789803 432.998787 825.53841 430.617636 829.77629 426.379755 
C 834.014171 422.141875 836.395322 416.393268 836.395322 410.4 
C 836.395322 404.406732 834.014171 398.658125 829.77629 394.420245 
C 825.53841 390.182364 819.789803 387.801213 813.796535 387.801213 
C 807.803267 387.801213 802.05466 390.182364 797.81678 394.420245 
C 793.578899 398.658125 791.197748 404.406732 791.197748 410.4 
C 791.197748 416.393268 793.578899 422.141875 797.81678 426.379755 
C 802.05466 430.617636 807.803267 432.998787 813.796535 432.998787 
z
" clip-path="url(#p604f8e579f)" style="fill: #a157db; fill-opacity: 0.501961; stroke: #a157db; stroke-opacity: 0.501961; stroke-width: 0.886227"/>
    <path d="M 813.796535 516.998787 
C 819.789803 516.998787 825.53841 514.617636 829.77629 510.379755 
C 834.014171 506.141875 836.395322 500.393268 836.395322 494.4 
C 836.395322 488.406732 834.014171 482.658125 829.77629 478.420245 
C 825.53841 474.182364 819.789803 471.801213 813.796535 471.801213 
C 807.803267 471.801213 802.05466 474.182364 797.81678 478.420245 
C 793.578899 482.658125 791.197748 488.406732 791.197748 494.4 
C 791.197748 500.393268 793.578899 506.141875 797.81678 510.379755 
C 802.05466 514.617636 807.803267 516.998787 813.796535 516.998787 
z
" clip-path="url(#p604f8e579f)" style="fill: #db5f57; fill-opacity: 0.501961; stroke: #db5f57; stroke-opacity: 0.501961; stroke-width: 0.886227"/>
    <path d="M 886.264067 516.998787 
C 892.257336 516.998787 898.005942 514.617636 902.243823 510.379755 
C 906.481703 506.141875 908.862854 500.393268 908.862854 494.4 
C 908.862854 488.406732 906.481703 482.658125 902.243823 478.420245 
C 898.005942 474.182364 892.257336 471.801213 886.264067 471.801213 
C 880.270799 471.801213 874.522193 474.182364 870.284312 478.420245 
C 866.046431 482.658125 863.665281 488.406732 863.665281 494.4 
C 863.665281 500.393268 866.046431 506.141875 870.284312 510.379755 
C 874.522193 514.617636 880.270799 516.998787 886.264067 516.998787 
z
" clip-path="url(#p604f8e579f)" style="fill: #a157db; fill-opacity: 0.501961; stroke: #a157db; stroke-opacity: 0.501961; stroke-width: 0.886227"/>
    <path d="M 886.264067 558.998787 
C 892.257336 558.998787 898.005942 556.617636 902.243823 552.379755 
C 906.481703 548.141875 908.862854 542.393268 908.862854 536.4 
C 908.862854 530.406732 906.481703 524.658125 902.243823 520.420245 
C 898.005942 516.182364 892.257336 513.801213 886.264067 513.801213 
C 880.270799 513.801213 874.522193 516.182364 870.284312 520.420245 
C 866.046431 524.658125 863.665281 530.406732 863.665281 536.4 
C 863.665281 542.393268 866.046431 548.141875 870.284312 552.379755 
C 874.522193 556.617636 880.270799 558.998787 886.264067 558.998787 
z
" clip-path="url(#p604f8e579f)" style="fill: #a157db; fill-opacity: 0.501961; stroke: #a157db; stroke-opacity: 0.501961; stroke-width: 0.886227"/>
    <path d="M 886.264067 558.998787 
C 892.257336 558.998787 898.005942 556.617636 902.243823 552.379755 
C 906.481703 548.141875 908.862854 542.393268 908.862854 536.4 
C 908.862854 530.406732 906.481703 524.658125 902.243823 520.420245 
C 898.005942 516.182364 892.257336 513.801213 886.264067 513.801213 
C 880.270799 513.801213 874.522193 516.182364 870.284312 520.420245 
C 866.046431 524.658125 863.665281 530.406732 863.665281 536.4 
C 863.665281 542.393268 866.046431 548.141875 870.284312 552.379755 
C 874.522193 556.617636 880.270799 558.998787 886.264067 558.998787 
z
" clip-path="url(#p604f8e579f)" style="fill: #a157db; fill-opacity: 0.501961; stroke: #a157db; stroke-opacity: 0.501961; stroke-width: 0.886227"/>
    <path d="M 886.264067 558.998787 
C 892.257336 558.998787 898.005942 556.617636 902.243823 552.379755 
C 906.481703 548.141875 908.862854 542.393268 908.862854 536.4 
C 908.862854 530.406732 906.481703 524.658125 902.243823 520.420245 
C 898.005942 516.182364 892.257336 513.801213 886.264067 513.801213 
C 880.270799 513.801213 874.522193 516.182364 870.284312 520.420245 
C 866.046431 524.658125 863.665281 530.406732 863.665281 536.4 
C 863.665281 542.393268 866.046431 548.141875 870.284312 552.379755 
C 874.522193 556.617636 880.270799 558.998787 886.264067 558.998787 
z
" clip-path="url(#p604f8e579f)" style="fill: #db5f57; fill-opacity: 0.501961; stroke: #db5f57; stroke-opacity: 0.501961; stroke-width: 0.886227"/>
    <path d="M 886.264067 432.998787 
C 892.257336 432.998787 898.005942 430.617636 902.243823 426.379755 
C 906.481703 422.141875 908.862854 416.393268 908.862854 410.4 
C 908.862854 404.406732 906.481703 398.658125 902.243823 394.420245 
C 898.005942 390.182364 892.257336 387.801213 886.264067 387.801213 
C 880.270799 387.801213 874.522193 390.182364 870.284312 394.420245 
C 866.046431 398.658125 863.665281 404.406732 863.665281 410.4 
C 863.665281 416.393268 866.046431 422.141875 870.284312 426.379755 
C 874.522193 430.617636 880.270799 432.998787 886.264067 432.998787 
z
" clip-path="url(#p604f8e579f)" style="fill: #5770db; fill-opacity: 0.501961; stroke: #5770db; stroke-opacity: 0.501961; stroke-width: 0.886227"/>
    <path d="M 886.264067 558.998787 
C 892.257336 558.998787 898.005942 556.617636 902.243823 552.379755 
C 906.481703 548.141875 908.862854 542.393268 908.862854 536.4 
C 908.862854 530.406732 906.481703 524.658125 902.243823 520.420245 
C 898.005942 516.182364 892.257336 513.801213 886.264067 513.801213 
C 880.270799 513.801213 874.522193 516.182364 870.284312 520.420245 
C 866.046431 524.658125 863.665281 530.406732 863.665281 536.4 
C 863.665281 542.393268 866.046431 548.141875 870.284312 552.379755 
C 874.522193 556.617636 880.270799 558.998787 886.264067 558.998787 
z
" clip-path="url(#p604f8e579f)" style="fill: #a157db; fill-opacity: 0.501961; stroke: #a157db; stroke-opacity: 0.501961; stroke-width: 0.886227"/>
    <path d="M 886.264067 516.998787 
C 892.257336 516.998787 898.005942 514.617636 902.243823 510.379755 
C 906.481703 506.141875 908.862854 500.393268 908.862854 494.4 
C 908.862854 488.406732 906.481703 482.658125 902.243823 478.420245 
C 898.005942 474.182364 892.257336 471.801213 886.264067 471.801213 
C 880.270799 471.801213 874.522193 474.182364 870.284312 478.420245 
C 866.046431 482.658125 863.665281 488.406732 863.665281 494.4 
C 863.665281 500.393268 866.046431 506.141875 870.284312 510.379755 
C 874.522193 514.617636 880.270799 516.998787 886.264067 516.998787 
z
" clip-path="url(#p604f8e579f)" style="fill: #a157db; fill-opacity: 0.501961; stroke: #a157db; stroke-opacity: 0.501961; stroke-width: 0.886227"/>
    <path d="M 886.264067 432.998787 
C 892.257336 432.998787 898.005942 430.617636 902.243823 426.379755 
C 906.481703 422.141875 908.862854 416.393268 908.862854 410.4 
C 908.862854 404.406732 906.481703 398.658125 902.243823 394.420245 
C 898.005942 390.182364 892.257336 387.801213 886.264067 387.801213 
C 880.270799 387.801213 874.522193 390.182364 870.284312 394.420245 
C 866.046431 398.658125 863.665281 404.406732 863.665281 410.4 
C 863.665281 416.393268 866.046431 422.141875 870.284312 426.379755 
C 874.522193 430.617636 880.270799 432.998787 886.264067 432.998787 
z
" clip-path="url(#p604f8e579f)" style="fill: #a157db; fill-opacity: 0.501961; stroke: #a157db; stroke-opacity: 0.501961; stroke-width: 0.886227"/>
    <path d="M 886.264067 432.998787 
C 892.257336 432.998787 898.005942 430.617636 902.243823 426.379755 
C 906.481703 422.141875 908.862854 416.393268 908.862854 410.4 
C 908.862854 404.406732 906.481703 398.658125 902.243823 394.420245 
C 898.005942 390.182364 892.257336 387.801213 886.264067 387.801213 
C 880.270799 387.801213 874.522193 390.182364 870.284312 394.420245 
C 866.046431 398.658125 863.665281 404.406732 863.665281 410.4 
C 863.665281 416.393268 866.046431 422.141875 870.284312 426.379755 
C 874.522193 430.617636 880.270799 432.998787 886.264067 432.998787 
z
" clip-path="url(#p604f8e579f)" style="fill: #db5f57; fill-opacity: 0.501961; stroke: #db5f57; stroke-opacity: 0.501961; stroke-width: 0.886227"/>
    <path d="M 886.264067 306.998787 
C 892.257336 306.998787 898.005942 304.617636 902.243823 300.379755 
C 906.481703 296.141875 908.862854 290.393268 908.862854 284.4 
C 908.862854 278.406732 906.481703 272.658125 902.243823 268.420245 
C 898.005942 264.182364 892.257336 261.801213 886.264067 261.801213 
C 880.270799 261.801213 874.522193 264.182364 870.284312 268.420245 
C 866.046431 272.658125 863.665281 278.406732 863.665281 284.4 
C 863.665281 290.393268 866.046431 296.141875 870.284312 300.379755 
C 874.522193 304.617636 880.270799 306.998787 886.264067 306.998787 
z
" clip-path="url(#p604f8e579f)" style="fill: #a157db; fill-opacity: 0.501961; stroke: #a157db; stroke-opacity: 0.501961; stroke-width: 0.886227"/>
    <path d="M 886.264067 558.998787 
C 892.257336 558.998787 898.005942 556.617636 902.243823 552.379755 
C 906.481703 548.141875 908.862854 542.393268 908.862854 536.4 
C 908.862854 530.406732 906.481703 524.658125 902.243823 520.420245 
C 898.005942 516.182364 892.257336 513.801213 886.264067 513.801213 
C 880.270799 513.801213 874.522193 516.182364 870.284312 520.420245 
C 866.046431 524.658125 863.665281 530.406732 863.665281 536.4 
C 863.665281 542.393268 866.046431 548.141875 870.284312 552.379755 
C 874.522193 556.617636 880.270799 558.998787 886.264067 558.998787 
z
" clip-path="url(#p604f8e579f)" style="fill: #db5f57; fill-opacity: 0.501961; stroke: #db5f57; stroke-opacity: 0.501961; stroke-width: 0.886227"/>
    <path d="M 886.264067 516.998787 
C 892.257336 516.998787 898.005942 514.617636 902.243823 510.379755 
C 906.481703 506.141875 908.862854 500.393268 908.862854 494.4 
C 908.862854 488.406732 906.481703 482.658125 902.243823 478.420245 
C 898.005942 474.182364 892.257336 471.801213 886.264067 471.801213 
C 880.270799 471.801213 874.522193 474.182364 870.284312 478.420245 
C 866.046431 482.658125 863.665281 488.406732 863.665281 494.4 
C 863.665281 500.393268 866.046431 506.141875 870.284312 510.379755 
C 874.522193 514.617636 880.270799 516.998787 886.264067 516.998787 
z
" clip-path="url(#p604f8e579f)" style="fill: #db5f57; fill-opacity: 0.501961; stroke: #db5f57; stroke-opacity: 0.501961; stroke-width: 0.886227"/>
    <path d="M 886.264067 474.998787 
C 892.257336 474.998787 898.005942 472.617636 902.243823 468.379755 
C 906.481703 464.141875 908.862854 458.393268 908.862854 452.4 
C 908.862854 446.406732 906.481703 440.658125 902.243823 436.420245 
C 898.005942 432.182364 892.257336 429.801213 886.264067 429.801213 
C 880.270799 429.801213 874.522193 432.182364 870.284312 436.420245 
C 866.046431 440.658125 863.665281 446.406732 863.665281 452.4 
C 863.665281 458.393268 866.046431 464.141875 870.284312 468.379755 
C 874.522193 472.617636 880.270799 474.998787 886.264067 474.998787 
z
" clip-path="url(#p604f8e579f)" style="fill: #a157db; fill-opacity: 0.501961; stroke: #a157db; stroke-opacity: 0.501961; stroke-width: 0.886227"/>
    <path d="M 886.264067 390.998787 
C 892.257336 390.998787 898.005942 388.617636 902.243823 384.379755 
C 906.481703 380.141875 908.862854 374.393268 908.862854 368.4 
C 908.862854 362.406732 906.481703 356.658125 902.243823 352.420245 
C 898.005942 348.182364 892.257336 345.801213 886.264067 345.801213 
C 880.270799 345.801213 874.522193 348.182364 870.284312 352.420245 
C 866.046431 356.658125 863.665281 362.406732 863.665281 368.4 
C 863.665281 374.393268 866.046431 380.141875 870.284312 384.379755 
C 874.522193 388.617636 880.270799 390.998787 886.264067 390.998787 
z
" clip-path="url(#p604f8e579f)" style="fill: #a157db; fill-opacity: 0.501961; stroke: #a157db; stroke-opacity: 0.501961; stroke-width: 0.886227"/>
    <path d="M 886.264067 558.998787 
C 892.257336 558.998787 898.005942 556.617636 902.243823 552.379755 
C 906.481703 548.141875 908.862854 542.393268 908.862854 536.4 
C 908.862854 530.406732 906.481703 524.658125 902.243823 520.420245 
C 898.005942 516.182364 892.257336 513.801213 886.264067 513.801213 
C 880.270799 513.801213 874.522193 516.182364 870.284312 520.420245 
C 866.046431 524.658125 863.665281 530.406732 863.665281 536.4 
C 863.665281 542.393268 866.046431 548.141875 870.284312 552.379755 
C 874.522193 556.617636 880.270799 558.998787 886.264067 558.998787 
z
" clip-path="url(#p604f8e579f)" style="fill: #a157db; fill-opacity: 0.501961; stroke: #a157db; stroke-opacity: 0.501961; stroke-width: 0.886227"/>
    <path d="M 886.264067 558.998787 
C 892.257336 558.998787 898.005942 556.617636 902.243823 552.379755 
C 906.481703 548.141875 908.862854 542.393268 908.862854 536.4 
C 908.862854 530.406732 906.481703 524.658125 902.243823 520.420245 
C 898.005942 516.182364 892.257336 513.801213 886.264067 513.801213 
C 880.270799 513.801213 874.522193 516.182364 870.284312 520.420245 
C 866.046431 524.658125 863.665281 530.406732 863.665281 536.4 
C 863.665281 542.393268 866.046431 548.141875 870.284312 552.379755 
C 874.522193 556.617636 880.270799 558.998787 886.264067 558.998787 
z
" clip-path="url(#p604f8e579f)" style="fill: #57d3db; fill-opacity: 0.501961; stroke: #57d3db; stroke-opacity: 0.501961; stroke-width: 0.886227"/>
    <path d="M 958.7316 348.998787 
C 964.724868 348.998787 970.473474 346.617636 974.711355 342.379755 
C 978.949236 338.141875 981.330386 332.393268 981.330386 326.4 
C 981.330386 320.406732 978.949236 314.658125 974.711355 310.420245 
C 970.473474 306.182364 964.724868 303.801213 958.7316 303.801213 
C 952.738332 303.801213 946.989725 306.182364 942.751845 310.420245 
C 938.513964 314.658125 936.132813 320.406732 936.132813 326.4 
C 936.132813 332.393268 938.513964 338.141875 942.751845 342.379755 
C 946.989725 346.617636 952.738332 348.998787 958.7316 348.998787 
z
" clip-path="url(#p604f8e579f)" style="fill: #5770db; fill-opacity: 0.501961; stroke: #5770db; stroke-opacity: 0.501961; stroke-width: 0.886227"/>
    <path d="M 958.7316 474.998787 
C 964.724868 474.998787 970.473474 472.617636 974.711355 468.379755 
C 978.949236 464.141875 981.330386 458.393268 981.330386 452.4 
C 981.330386 446.406732 978.949236 440.658125 974.711355 436.420245 
C 970.473474 432.182364 964.724868 429.801213 958.7316 429.801213 
C 952.738332 429.801213 946.989725 432.182364 942.751845 436.420245 
C 938.513964 440.658125 936.132813 446.406732 936.132813 452.4 
C 936.132813 458.393268 938.513964 464.141875 942.751845 468.379755 
C 946.989725 472.617636 952.738332 474.998787 958.7316 474.998787 
z
" clip-path="url(#p604f8e579f)" style="fill: #5770db; fill-opacity: 0.501961; stroke: #5770db; stroke-opacity: 0.501961; stroke-width: 0.886227"/>
    <path d="M 1031.199132 558.998787 
C 1037.192401 558.998787 1042.941007 556.617636 1047.178888 552.379755 
C 1051.416768 548.141875 1053.797919 542.393268 1053.797919 536.4 
C 1053.797919 530.406732 1051.416768 524.658125 1047.178888 520.420245 
C 1042.941007 516.182364 1037.192401 513.801213 1031.199132 513.801213 
C 1025.205864 513.801213 1019.457258 516.182364 1015.219377 520.420245 
C 1010.981496 524.658125 1008.600346 530.406732 1008.600346 536.4 
C 1008.600346 542.393268 1010.981496 548.141875 1015.219377 552.379755 
C 1019.457258 556.617636 1025.205864 558.998787 1031.199132 558.998787 
z
" clip-path="url(#p604f8e579f)" style="fill: #5770db; fill-opacity: 0.501961; stroke: #5770db; stroke-opacity: 0.501961; stroke-width: 0.886227"/>
    <path d="M 1031.199132 516.998787 
C 1037.192401 516.998787 1042.941007 514.617636 1047.178888 510.379755 
C 1051.416768 506.141875 1053.797919 500.393268 1053.797919 494.4 
C 1053.797919 488.406732 1051.416768 482.658125 1047.178888 478.420245 
C 1042.941007 474.182364 1037.192401 471.801213 1031.199132 471.801213 
C 1025.205864 471.801213 1019.457258 474.182364 1015.219377 478.420245 
C 1010.981496 482.658125 1008.600346 488.406732 1008.600346 494.4 
C 1008.600346 500.393268 1010.981496 506.141875 1015.219377 510.379755 
C 1019.457258 514.617636 1025.205864 516.998787 1031.199132 516.998787 
z
" clip-path="url(#p604f8e579f)" style="fill: #5770db; fill-opacity: 0.501961; stroke: #5770db; stroke-opacity: 0.501961; stroke-width: 0.886227"/>
    <path d="M 1031.199132 474.998787 
C 1037.192401 474.998787 1042.941007 472.617636 1047.178888 468.379755 
C 1051.416768 464.141875 1053.797919 458.393268 1053.797919 452.4 
C 1053.797919 446.406732 1051.416768 440.658125 1047.178888 436.420245 
C 1042.941007 432.182364 1037.192401 429.801213 1031.199132 429.801213 
C 1025.205864 429.801213 1019.457258 432.182364 1015.219377 436.420245 
C 1010.981496 440.658125 1008.600346 446.406732 1008.600346 452.4 
C 1008.600346 458.393268 1010.981496 464.141875 1015.219377 468.379755 
C 1019.457258 472.617636 1025.205864 474.998787 1031.199132 474.998787 
z
" clip-path="url(#p604f8e579f)" style="fill: #5770db; fill-opacity: 0.501961; stroke: #5770db; stroke-opacity: 0.501961; stroke-width: 0.886227"/>
    <path d="M 1031.199132 558.998787 
C 1037.192401 558.998787 1042.941007 556.617636 1047.178888 552.379755 
C 1051.416768 548.141875 1053.797919 542.393268 1053.797919 536.4 
C 1053.797919 530.406732 1051.416768 524.658125 1047.178888 520.420245 
C 1042.941007 516.182364 1037.192401 513.801213 1031.199132 513.801213 
C 1025.205864 513.801213 1019.457258 516.182364 1015.219377 520.420245 
C 1010.981496 524.658125 1008.600346 530.406732 1008.600346 536.4 
C 1008.600346 542.393268 1010.981496 548.141875 1015.219377 552.379755 
C 1019.457258 556.617636 1025.205864 558.998787 1031.199132 558.998787 
z
" clip-path="url(#p604f8e579f)" style="fill: #5770db; fill-opacity: 0.501961; stroke: #5770db; stroke-opacity: 0.501961; stroke-width: 0.886227"/>
    <path d="M 1031.199132 348.998787 
C 1037.192401 348.998787 1042.941007 346.617636 1047.178888 342.379755 
C 1051.416768 338.141875 1053.797919 332.393268 1053.797919 326.4 
C 1053.797919 320.406732 1051.416768 314.658125 1047.178888 310.420245 
C 1042.941007 306.182364 1037.192401 303.801213 1031.199132 303.801213 
C 1025.205864 303.801213 1019.457258 306.182364 1015.219377 310.420245 
C 1010.981496 314.658125 1008.600346 320.406732 1008.600346 326.4 
C 1008.600346 332.393268 1010.981496 338.141875 1015.219377 342.379755 
C 1019.457258 346.617636 1025.205864 348.998787 1031.199132 348.998787 
z
" clip-path="url(#p604f8e579f)" style="fill: #5770db; fill-opacity: 0.501961; stroke: #5770db; stroke-opacity: 0.501961; stroke-width: 0.886227"/>
    <path d="M 1031.199132 516.998787 
C 1037.192401 516.998787 1042.941007 514.617636 1047.178888 510.379755 
C 1051.416768 506.141875 1053.797919 500.393268 1053.797919 494.4 
C 1053.797919 488.406732 1051.416768 482.658125 1047.178888 478.420245 
C 1042.941007 474.182364 1037.192401 471.801213 1031.199132 471.801213 
C 1025.205864 471.801213 1019.457258 474.182364 1015.219377 478.420245 
C 1010.981496 482.658125 1008.600346 488.406732 1008.600346 494.4 
C 1008.600346 500.393268 1010.981496 506.141875 1015.219377 510.379755 
C 1019.457258 514.617636 1025.205864 516.998787 1031.199132 516.998787 
z
" clip-path="url(#p604f8e579f)" style="fill: #5770db; fill-opacity: 0.501961; stroke: #5770db; stroke-opacity: 0.501961; stroke-width: 0.886227"/>
    <path d="M 1031.199132 516.998787 
C 1037.192401 516.998787 1042.941007 514.617636 1047.178888 510.379755 
C 1051.416768 506.141875 1053.797919 500.393268 1053.797919 494.4 
C 1053.797919 488.406732 1051.416768 482.658125 1047.178888 478.420245 
C 1042.941007 474.182364 1037.192401 471.801213 1031.199132 471.801213 
C 1025.205864 471.801213 1019.457258 474.182364 1015.219377 478.420245 
C 1010.981496 482.658125 1008.600346 488.406732 1008.600346 494.4 
C 1008.600346 500.393268 1010.981496 506.141875 1015.219377 510.379755 
C 1019.457258 514.617636 1025.205864 516.998787 1031.199132 516.998787 
z
" clip-path="url(#p604f8e579f)" style="fill: #5770db; fill-opacity: 0.501961; stroke: #5770db; stroke-opacity: 0.501961; stroke-width: 0.886227"/>
    <path d="M 1031.199132 516.998787 
C 1037.192401 516.998787 1042.941007 514.617636 1047.178888 510.379755 
C 1051.416768 506.141875 1053.797919 500.393268 1053.797919 494.4 
C 1053.797919 488.406732 1051.416768 482.658125 1047.178888 478.420245 
C 1042.941007 474.182364 1037.192401 471.801213 1031.199132 471.801213 
C 1025.205864 471.801213 1019.457258 474.182364 1015.219377 478.420245 
C 1010.981496 482.658125 1008.600346 488.406732 1008.600346 494.4 
C 1008.600346 500.393268 1010.981496 506.141875 1015.219377 510.379755 
C 1019.457258 514.617636 1025.205864 516.998787 1031.199132 516.998787 
z
" clip-path="url(#p604f8e579f)" style="fill: #5770db; fill-opacity: 0.501961; stroke: #5770db; stroke-opacity: 0.501961; stroke-width: 0.886227"/>
    <path d="M 1031.199132 558.998787 
C 1037.192401 558.998787 1042.941007 556.617636 1047.178888 552.379755 
C 1051.416768 548.141875 1053.797919 542.393268 1053.797919 536.4 
C 1053.797919 530.406732 1051.416768 524.658125 1047.178888 520.420245 
C 1042.941007 516.182364 1037.192401 513.801213 1031.199132 513.801213 
C 1025.205864 513.801213 1019.457258 516.182364 1015.219377 520.420245 
C 1010.981496 524.658125 1008.600346 530.406732 1008.600346 536.4 
C 1008.600346 542.393268 1010.981496 548.141875 1015.219377 552.379755 
C 1019.457258 556.617636 1025.205864 558.998787 1031.199132 558.998787 
z
" clip-path="url(#p604f8e579f)" style="fill: #dbc257; fill-opacity: 0.501961; stroke: #dbc257; stroke-opacity: 0.501961; stroke-width: 0.886227"/>
    <path d="M 1031.199132 222.998787 
C 1037.192401 222.998787 1042.941007 220.617636 1047.178888 216.379755 
C 1051.416768 212.141875 1053.797919 206.393268 1053.797919 200.4 
C 1053.797919 194.406732 1051.416768 188.658125 1047.178888 184.420245 
C 1042.941007 180.182364 1037.192401 177.801213 1031.199132 177.801213 
C 1025.205864 177.801213 1019.457258 180.182364 1015.219377 184.420245 
C 1010.981496 188.658125 1008.600346 194.406732 1008.600346 200.4 
C 1008.600346 206.393268 1010.981496 212.141875 1015.219377 216.379755 
C 1019.457258 220.617636 1025.205864 222.998787 1031.199132 222.998787 
z
" clip-path="url(#p604f8e579f)" style="fill: #5770db; fill-opacity: 0.501961; stroke: #5770db; stroke-opacity: 0.501961; stroke-width: 0.886227"/>
    <path d="M 1031.199132 390.998787 
C 1037.192401 390.998787 1042.941007 388.617636 1047.178888 384.379755 
C 1051.416768 380.141875 1053.797919 374.393268 1053.797919 368.4 
C 1053.797919 362.406732 1051.416768 356.658125 1047.178888 352.420245 
C 1042.941007 348.182364 1037.192401 345.801213 1031.199132 345.801213 
C 1025.205864 345.801213 1019.457258 348.182364 1015.219377 352.420245 
C 1010.981496 356.658125 1008.600346 362.406732 1008.600346 368.4 
C 1008.600346 374.393268 1010.981496 380.141875 1015.219377 384.379755 
C 1019.457258 388.617636 1025.205864 390.998787 1031.199132 390.998787 
z
" clip-path="url(#p604f8e579f)" style="fill: #5770db; fill-opacity: 0.501961; stroke: #5770db; stroke-opacity: 0.501961; stroke-width: 0.886227"/>
    <path d="M 1031.199132 390.998787 
C 1037.192401 390.998787 1042.941007 388.617636 1047.178888 384.379755 
C 1051.416768 380.141875 1053.797919 374.393268 1053.797919 368.4 
C 1053.797919 362.406732 1051.416768 356.658125 1047.178888 352.420245 
C 1042.941007 348.182364 1037.192401 345.801213 1031.199132 345.801213 
C 1025.205864 345.801213 1019.457258 348.182364 1015.219377 352.420245 
C 1010.981496 356.658125 1008.600346 362.406732 1008.600346 368.4 
C 1008.600346 374.393268 1010.981496 380.141875 1015.219377 384.379755 
C 1019.457258 388.617636 1025.205864 390.998787 1031.199132 390.998787 
z
" clip-path="url(#p604f8e579f)" style="fill: #5770db; fill-opacity: 0.501961; stroke: #5770db; stroke-opacity: 0.501961; stroke-width: 0.886227"/>
    <path d="M 1031.199132 54.998787 
C 1037.192401 54.998787 1042.941007 52.617636 1047.178888 48.379755 
C 1051.416768 44.141875 1053.797919 38.393268 1053.797919 32.4 
C 1053.797919 26.406732 1051.416768 20.658125 1047.178888 16.420245 
C 1042.941007 12.182364 1037.192401 9.801213 1031.199132 9.801213 
C 1025.205864 9.801213 1019.457258 12.182364 1015.219377 16.420245 
C 1010.981496 20.658125 1008.600346 26.406732 1008.600346 32.4 
C 1008.600346 38.393268 1010.981496 44.141875 1015.219377 48.379755 
C 1019.457258 52.617636 1025.205864 54.998787 1031.199132 54.998787 
z
" clip-path="url(#p604f8e579f)" style="fill: #dbc257; fill-opacity: 0.501961; stroke: #dbc257; stroke-opacity: 0.501961; stroke-width: 0.886227"/>
    <path d="M 1031.199132 432.998787 
C 1037.192401 432.998787 1042.941007 430.617636 1047.178888 426.379755 
C 1051.416768 422.141875 1053.797919 416.393268 1053.797919 410.4 
C 1053.797919 404.406732 1051.416768 398.658125 1047.178888 394.420245 
C 1042.941007 390.182364 1037.192401 387.801213 1031.199132 387.801213 
C 1025.205864 387.801213 1019.457258 390.182364 1015.219377 394.420245 
C 1010.981496 398.658125 1008.600346 404.406732 1008.600346 410.4 
C 1008.600346 416.393268 1010.981496 422.141875 1015.219377 426.379755 
C 1019.457258 430.617636 1025.205864 432.998787 1031.199132 432.998787 
z
" clip-path="url(#p604f8e579f)" style="fill: #5770db; fill-opacity: 0.501961; stroke: #5770db; stroke-opacity: 0.501961; stroke-width: 0.886227"/>
    <path d="M 1103.666665 558.998787 
C 1109.659933 558.998787 1115.408539 556.617636 1119.64642 552.379755 
C 1123.884301 548.141875 1126.265451 542.393268 1126.265451 536.4 
C 1126.265451 530.406732 1123.884301 524.658125 1119.64642 520.420245 
C 1115.408539 516.182364 1109.659933 513.801213 1103.666665 513.801213 
C 1097.673397 513.801213 1091.92479 516.182364 1087.68691 520.420245 
C 1083.449029 524.658125 1081.067878 530.406732 1081.067878 536.4 
C 1081.067878 542.393268 1083.449029 548.141875 1087.68691 552.379755 
C 1091.92479 556.617636 1097.673397 558.998787 1103.666665 558.998787 
z
" clip-path="url(#p604f8e579f)" style="fill: #db5f57; fill-opacity: 0.501961; stroke: #db5f57; stroke-opacity: 0.501961; stroke-width: 0.886227"/>
    <path d="M 1103.666665 390.998787 
C 1109.659933 390.998787 1115.408539 388.617636 1119.64642 384.379755 
C 1123.884301 380.141875 1126.265451 374.393268 1126.265451 368.4 
C 1126.265451 362.406732 1123.884301 356.658125 1119.64642 352.420245 
C 1115.408539 348.182364 1109.659933 345.801213 1103.666665 345.801213 
C 1097.673397 345.801213 1091.92479 348.182364 1087.68691 352.420245 
C 1083.449029 356.658125 1081.067878 362.406732 1081.067878 368.4 
C 1081.067878 374.393268 1083.449029 380.141875 1087.68691 384.379755 
C 1091.92479 388.617636 1097.673397 390.998787 1103.666665 390.998787 
z
" clip-path="url(#p604f8e579f)" style="fill: #dbc257; fill-opacity: 0.501961; stroke: #dbc257; stroke-opacity: 0.501961; stroke-width: 0.886227"/>
    <path d="M 1103.666665 558.998787 
C 1109.659933 558.998787 1115.408539 556.617636 1119.64642 552.379755 
C 1123.884301 548.141875 1126.265451 542.393268 1126.265451 536.4 
C 1126.265451 530.406732 1123.884301 524.658125 1119.64642 520.420245 
C 1115.408539 516.182364 1109.659933 513.801213 1103.666665 513.801213 
C 1097.673397 513.801213 1091.92479 516.182364 1087.68691 520.420245 
C 1083.449029 524.658125 1081.067878 530.406732 1081.067878 536.4 
C 1081.067878 542.393268 1083.449029 548.141875 1087.68691 552.379755 
C 1091.92479 556.617636 1097.673397 558.998787 1103.666665 558.998787 
z
" clip-path="url(#p604f8e579f)" style="fill: #dbc257; fill-opacity: 0.501961; stroke: #dbc257; stroke-opacity: 0.501961; stroke-width: 0.886227"/>
    <path d="M 1103.666665 558.998787 
C 1109.659933 558.998787 1115.408539 556.617636 1119.64642 552.379755 
C 1123.884301 548.141875 1126.265451 542.393268 1126.265451 536.4 
C 1126.265451 530.406732 1123.884301 524.658125 1119.64642 520.420245 
C 1115.408539 516.182364 1109.659933 513.801213 1103.666665 513.801213 
C 1097.673397 513.801213 1091.92479 516.182364 1087.68691 520.420245 
C 1083.449029 524.658125 1081.067878 530.406732 1081.067878 536.4 
C 1081.067878 542.393268 1083.449029 548.141875 1087.68691 552.379755 
C 1091.92479 556.617636 1097.673397 558.998787 1103.666665 558.998787 
z
" clip-path="url(#p604f8e579f)" style="fill: #5770db; fill-opacity: 0.501961; stroke: #5770db; stroke-opacity: 0.501961; stroke-width: 0.886227"/>
    <path d="M 1103.666665 558.998787 
C 1109.659933 558.998787 1115.408539 556.617636 1119.64642 552.379755 
C 1123.884301 548.141875 1126.265451 542.393268 1126.265451 536.4 
C 1126.265451 530.406732 1123.884301 524.658125 1119.64642 520.420245 
C 1115.408539 516.182364 1109.659933 513.801213 1103.666665 513.801213 
C 1097.673397 513.801213 1091.92479 516.182364 1087.68691 520.420245 
C 1083.449029 524.658125 1081.067878 530.406732 1081.067878 536.4 
C 1081.067878 542.393268 1083.449029 548.141875 1087.68691 552.379755 
C 1091.92479 556.617636 1097.673397 558.998787 1103.666665 558.998787 
z
" clip-path="url(#p604f8e579f)" style="fill: #db5f57; fill-opacity: 0.501961; stroke: #db5f57; stroke-opacity: 0.501961; stroke-width: 0.886227"/>
    <path d="M 1103.666665 264.998787 
C 1109.659933 264.998787 1115.408539 262.617636 1119.64642 258.379755 
C 1123.884301 254.141875 1126.265451 248.393268 1126.265451 242.4 
C 1126.265451 236.406732 1123.884301 230.658125 1119.64642 226.420245 
C 1115.408539 222.182364 1109.659933 219.801213 1103.666665 219.801213 
C 1097.673397 219.801213 1091.92479 222.182364 1087.68691 226.420245 
C 1083.449029 230.658125 1081.067878 236.406732 1081.067878 242.4 
C 1081.067878 248.393268 1083.449029 254.141875 1087.68691 258.379755 
C 1091.92479 262.617636 1097.673397 264.998787 1103.666665 264.998787 
z
" clip-path="url(#p604f8e579f)" style="fill: #a157db; fill-opacity: 0.501961; stroke: #a157db; stroke-opacity: 0.501961; stroke-width: 0.886227"/>
    <path d="M 1103.666665 516.998787 
C 1109.659933 516.998787 1115.408539 514.617636 1119.64642 510.379755 
C 1123.884301 506.141875 1126.265451 500.393268 1126.265451 494.4 
C 1126.265451 488.406732 1123.884301 482.658125 1119.64642 478.420245 
C 1115.408539 474.182364 1109.659933 471.801213 1103.666665 471.801213 
C 1097.673397 471.801213 1091.92479 474.182364 1087.68691 478.420245 
C 1083.449029 482.658125 1081.067878 488.406732 1081.067878 494.4 
C 1081.067878 500.393268 1083.449029 506.141875 1087.68691 510.379755 
C 1091.92479 514.617636 1097.673397 516.998787 1103.666665 516.998787 
z
" clip-path="url(#p604f8e579f)" style="fill: #5770db; fill-opacity: 0.501961; stroke: #5770db; stroke-opacity: 0.501961; stroke-width: 0.886227"/>
    <path d="M 1103.666665 558.998787 
C 1109.659933 558.998787 1115.408539 556.617636 1119.64642 552.379755 
C 1123.884301 548.141875 1126.265451 542.393268 1126.265451 536.4 
C 1126.265451 530.406732 1123.884301 524.658125 1119.64642 520.420245 
C 1115.408539 516.182364 1109.659933 513.801213 1103.666665 513.801213 
C 1097.673397 513.801213 1091.92479 516.182364 1087.68691 520.420245 
C 1083.449029 524.658125 1081.067878 530.406732 1081.067878 536.4 
C 1081.067878 542.393268 1083.449029 548.141875 1087.68691 552.379755 
C 1091.92479 556.617636 1097.673397 558.998787 1103.666665 558.998787 
z
" clip-path="url(#p604f8e579f)" style="fill: #a157db; fill-opacity: 0.501961; stroke: #a157db; stroke-opacity: 0.501961; stroke-width: 0.886227"/>
    <path d="M 1103.666665 558.998787 
C 1109.659933 558.998787 1115.408539 556.617636 1119.64642 552.379755 
C 1123.884301 548.141875 1126.265451 542.393268 1126.265451 536.4 
C 1126.265451 530.406732 1123.884301 524.658125 1119.64642 520.420245 
C 1115.408539 516.182364 1109.659933 513.801213 1103.666665 513.801213 
C 1097.673397 513.801213 1091.92479 516.182364 1087.68691 520.420245 
C 1083.449029 524.658125 1081.067878 530.406732 1081.067878 536.4 
C 1081.067878 542.393268 1083.449029 548.141875 1087.68691 552.379755 
C 1091.92479 556.617636 1097.673397 558.998787 1103.666665 558.998787 
z
" clip-path="url(#p604f8e579f)" style="fill: #57d3db; fill-opacity: 0.501961; stroke: #57d3db; stroke-opacity: 0.501961; stroke-width: 0.886227"/>
    <path d="M 1103.666665 474.998787 
C 1109.659933 474.998787 1115.408539 472.617636 1119.64642 468.379755 
C 1123.884301 464.141875 1126.265451 458.393268 1126.265451 452.4 
C 1126.265451 446.406732 1123.884301 440.658125 1119.64642 436.420245 
C 1115.408539 432.182364 1109.659933 429.801213 1103.666665 429.801213 
C 1097.673397 429.801213 1091.92479 432.182364 1087.68691 436.420245 
C 1083.449029 440.658125 1081.067878 446.406732 1081.067878 452.4 
C 1081.067878 458.393268 1083.449029 464.141875 1087.68691 468.379755 
C 1091.92479 472.617636 1097.673397 474.998787 1103.666665 474.998787 
z
" clip-path="url(#p604f8e579f)" style="fill: #57db80; fill-opacity: 0.501961; stroke: #57db80; stroke-opacity: 0.501961; stroke-width: 0.886227"/>
    <path d="M 1103.666665 558.998787 
C 1109.659933 558.998787 1115.408539 556.617636 1119.64642 552.379755 
C 1123.884301 548.141875 1126.265451 542.393268 1126.265451 536.4 
C 1126.265451 530.406732 1123.884301 524.658125 1119.64642 520.420245 
C 1115.408539 516.182364 1109.659933 513.801213 1103.666665 513.801213 
C 1097.673397 513.801213 1091.92479 516.182364 1087.68691 520.420245 
C 1083.449029 524.658125 1081.067878 530.406732 1081.067878 536.4 
C 1081.067878 542.393268 1083.449029 548.141875 1087.68691 552.379755 
C 1091.92479 556.617636 1097.673397 558.998787 1103.666665 558.998787 
z
" clip-path="url(#p604f8e579f)" style="fill: #a157db; fill-opacity: 0.501961; stroke: #a157db; stroke-opacity: 0.501961; stroke-width: 0.886227"/>
    <path d="M 1103.666665 516.998787 
C 1109.659933 516.998787 1115.408539 514.617636 1119.64642 510.379755 
C 1123.884301 506.141875 1126.265451 500.393268 1126.265451 494.4 
C 1126.265451 488.406732 1123.884301 482.658125 1119.64642 478.420245 
C 1115.408539 474.182364 1109.659933 471.801213 1103.666665 471.801213 
C 1097.673397 471.801213 1091.92479 474.182364 1087.68691 478.420245 
C 1083.449029 482.658125 1081.067878 488.406732 1081.067878 494.4 
C 1081.067878 500.393268 1083.449029 506.141875 1087.68691 510.379755 
C 1091.92479 514.617636 1097.673397 516.998787 1103.666665 516.998787 
z
" clip-path="url(#p604f8e579f)" style="fill: #db5f57; fill-opacity: 0.501961; stroke: #db5f57; stroke-opacity: 0.501961; stroke-width: 0.886227"/>
    <path d="M 1103.666665 558.998787 
C 1109.659933 558.998787 1115.408539 556.617636 1119.64642 552.379755 
C 1123.884301 548.141875 1126.265451 542.393268 1126.265451 536.4 
C 1126.265451 530.406732 1123.884301 524.658125 1119.64642 520.420245 
C 1115.408539 516.182364 1109.659933 513.801213 1103.666665 513.801213 
C 1097.673397 513.801213 1091.92479 516.182364 1087.68691 520.420245 
C 1083.449029 524.658125 1081.067878 530.406732 1081.067878 536.4 
C 1081.067878 542.393268 1083.449029 548.141875 1087.68691 552.379755 
C 1091.92479 556.617636 1097.673397 558.998787 1103.666665 558.998787 
z
" clip-path="url(#p604f8e579f)" style="fill: #57d3db; fill-opacity: 0.501961; stroke: #57d3db; stroke-opacity: 0.501961; stroke-width: 0.886227"/>
    <path d="M 1103.666665 558.998787 
C 1109.659933 558.998787 1115.408539 556.617636 1119.64642 552.379755 
C 1123.884301 548.141875 1126.265451 542.393268 1126.265451 536.4 
C 1126.265451 530.406732 1123.884301 524.658125 1119.64642 520.420245 
C 1115.408539 516.182364 1109.659933 513.801213 1103.666665 513.801213 
C 1097.673397 513.801213 1091.92479 516.182364 1087.68691 520.420245 
C 1083.449029 524.658125 1081.067878 530.406732 1081.067878 536.4 
C 1081.067878 542.393268 1083.449029 548.141875 1087.68691 552.379755 
C 1091.92479 556.617636 1097.673397 558.998787 1103.666665 558.998787 
z
" clip-path="url(#p604f8e579f)" style="fill: #57d3db; fill-opacity: 0.501961; stroke: #57d3db; stroke-opacity: 0.501961; stroke-width: 0.886227"/>
    <path d="M 1103.666665 558.998787 
C 1109.659933 558.998787 1115.408539 556.617636 1119.64642 552.379755 
C 1123.884301 548.141875 1126.265451 542.393268 1126.265451 536.4 
C 1126.265451 530.406732 1123.884301 524.658125 1119.64642 520.420245 
C 1115.408539 516.182364 1109.659933 513.801213 1103.666665 513.801213 
C 1097.673397 513.801213 1091.92479 516.182364 1087.68691 520.420245 
C 1083.449029 524.658125 1081.067878 530.406732 1081.067878 536.4 
C 1081.067878 542.393268 1083.449029 548.141875 1087.68691 552.379755 
C 1091.92479 556.617636 1097.673397 558.998787 1103.666665 558.998787 
z
" clip-path="url(#p604f8e579f)" style="fill: #a157db; fill-opacity: 0.501961; stroke: #a157db; stroke-opacity: 0.501961; stroke-width: 0.886227"/>
    <path d="M 1103.666665 348.998787 
C 1109.659933 348.998787 1115.408539 346.617636 1119.64642 342.379755 
C 1123.884301 338.141875 1126.265451 332.393268 1126.265451 326.4 
C 1126.265451 320.406732 1123.884301 314.658125 1119.64642 310.420245 
C 1115.408539 306.182364 1109.659933 303.801213 1103.666665 303.801213 
C 1097.673397 303.801213 1091.92479 306.182364 1087.68691 310.420245 
C 1083.449029 314.658125 1081.067878 320.406732 1081.067878 326.4 
C 1081.067878 332.393268 1083.449029 338.141875 1087.68691 342.379755 
C 1091.92479 346.617636 1097.673397 348.998787 1103.666665 348.998787 
z
" clip-path="url(#p604f8e579f)" style="fill: #5770db; fill-opacity: 0.501961; stroke: #5770db; stroke-opacity: 0.501961; stroke-width: 0.886227"/>
    <path d="M 1103.666665 558.998787 
C 1109.659933 558.998787 1115.408539 556.617636 1119.64642 552.379755 
C 1123.884301 548.141875 1126.265451 542.393268 1126.265451 536.4 
C 1126.265451 530.406732 1123.884301 524.658125 1119.64642 520.420245 
C 1115.408539 516.182364 1109.659933 513.801213 1103.666665 513.801213 
C 1097.673397 513.801213 1091.92479 516.182364 1087.68691 520.420245 
C 1083.449029 524.658125 1081.067878 530.406732 1081.067878 536.4 
C 1081.067878 542.393268 1083.449029 548.141875 1087.68691 552.379755 
C 1091.92479 556.617636 1097.673397 558.998787 1103.666665 558.998787 
z
" clip-path="url(#p604f8e579f)" style="fill: #a157db; fill-opacity: 0.501961; stroke: #a157db; stroke-opacity: 0.501961; stroke-width: 0.886227"/>
    <path d="M 1103.666665 558.998787 
C 1109.659933 558.998787 1115.408539 556.617636 1119.64642 552.379755 
C 1123.884301 548.141875 1126.265451 542.393268 1126.265451 536.4 
C 1126.265451 530.406732 1123.884301 524.658125 1119.64642 520.420245 
C 1115.408539 516.182364 1109.659933 513.801213 1103.666665 513.801213 
C 1097.673397 513.801213 1091.92479 516.182364 1087.68691 520.420245 
C 1083.449029 524.658125 1081.067878 530.406732 1081.067878 536.4 
C 1081.067878 542.393268 1083.449029 548.141875 1087.68691 552.379755 
C 1091.92479 556.617636 1097.673397 558.998787 1103.666665 558.998787 
z
" clip-path="url(#p604f8e579f)" style="fill: #a157db; fill-opacity: 0.501961; stroke: #a157db; stroke-opacity: 0.501961; stroke-width: 0.886227"/>
    <path d="M 1103.666665 558.998787 
C 1109.659933 558.998787 1115.408539 556.617636 1119.64642 552.379755 
C 1123.884301 548.141875 1126.265451 542.393268 1126.265451 536.4 
C 1126.265451 530.406732 1123.884301 524.658125 1119.64642 520.420245 
C 1115.408539 516.182364 1109.659933 513.801213 1103.666665 513.801213 
C 1097.673397 513.801213 1091.92479 516.182364 1087.68691 520.420245 
C 1083.449029 524.658125 1081.067878 530.406732 1081.067878 536.4 
C 1081.067878 542.393268 1083.449029 548.141875 1087.68691 552.379755 
C 1091.92479 556.617636 1097.673397 558.998787 1103.666665 558.998787 
z
" clip-path="url(#p604f8e579f)" style="fill: #a157db; fill-opacity: 0.501961; stroke: #a157db; stroke-opacity: 0.501961; stroke-width: 0.886227"/>
    <path d="M 1103.666665 558.998787 
C 1109.659933 558.998787 1115.408539 556.617636 1119.64642 552.379755 
C 1123.884301 548.141875 1126.265451 542.393268 1126.265451 536.4 
C 1126.265451 530.406732 1123.884301 524.658125 1119.64642 520.420245 
C 1115.408539 516.182364 1109.659933 513.801213 1103.666665 513.801213 
C 1097.673397 513.801213 1091.92479 516.182364 1087.68691 520.420245 
C 1083.449029 524.658125 1081.067878 530.406732 1081.067878 536.4 
C 1081.067878 542.393268 1083.449029 548.141875 1087.68691 552.379755 
C 1091.92479 556.617636 1097.673397 558.998787 1103.666665 558.998787 
z
" clip-path="url(#p604f8e579f)" style="fill: #db5f57; fill-opacity: 0.501961; stroke: #db5f57; stroke-opacity: 0.501961; stroke-width: 0.886227"/>
    <path d="M 1103.666665 516.998787 
C 1109.659933 516.998787 1115.408539 514.617636 1119.64642 510.379755 
C 1123.884301 506.141875 1126.265451 500.393268 1126.265451 494.4 
C 1126.265451 488.406732 1123.884301 482.658125 1119.64642 478.420245 
C 1115.408539 474.182364 1109.659933 471.801213 1103.666665 471.801213 
C 1097.673397 471.801213 1091.92479 474.182364 1087.68691 478.420245 
C 1083.449029 482.658125 1081.067878 488.406732 1081.067878 494.4 
C 1081.067878 500.393268 1083.449029 506.141875 1087.68691 510.379755 
C 1091.92479 514.617636 1097.673397 516.998787 1103.666665 516.998787 
z
" clip-path="url(#p604f8e579f)" style="fill: #5770db; fill-opacity: 0.501961; stroke: #5770db; stroke-opacity: 0.501961; stroke-width: 0.886227"/>
    <path d="M 1103.666665 558.998787 
C 1109.659933 558.998787 1115.408539 556.617636 1119.64642 552.379755 
C 1123.884301 548.141875 1126.265451 542.393268 1126.265451 536.4 
C 1126.265451 530.406732 1123.884301 524.658125 1119.64642 520.420245 
C 1115.408539 516.182364 1109.659933 513.801213 1103.666665 513.801213 
C 1097.673397 513.801213 1091.92479 516.182364 1087.68691 520.420245 
C 1083.449029 524.658125 1081.067878 530.406732 1081.067878 536.4 
C 1081.067878 542.393268 1083.449029 548.141875 1087.68691 552.379755 
C 1091.92479 556.617636 1097.673397 558.998787 1103.666665 558.998787 
z
" clip-path="url(#p604f8e579f)" style="fill: #a157db; fill-opacity: 0.501961; stroke: #a157db; stroke-opacity: 0.501961; stroke-width: 0.886227"/>
    <path d="M 1103.666665 474.998787 
C 1109.659933 474.998787 1115.408539 472.617636 1119.64642 468.379755 
C 1123.884301 464.141875 1126.265451 458.393268 1126.265451 452.4 
C 1126.265451 446.406732 1123.884301 440.658125 1119.64642 436.420245 
C 1115.408539 432.182364 1109.659933 429.801213 1103.666665 429.801213 
C 1097.673397 429.801213 1091.92479 432.182364 1087.68691 436.420245 
C 1083.449029 440.658125 1081.067878 446.406732 1081.067878 452.4 
C 1081.067878 458.393268 1083.449029 464.141875 1087.68691 468.379755 
C 1091.92479 472.617636 1097.673397 474.998787 1103.666665 474.998787 
z
" clip-path="url(#p604f8e579f)" style="fill: #57d3db; fill-opacity: 0.501961; stroke: #57d3db; stroke-opacity: 0.501961; stroke-width: 0.886227"/>
    <path d="M 1103.666665 558.998787 
C 1109.659933 558.998787 1115.408539 556.617636 1119.64642 552.379755 
C 1123.884301 548.141875 1126.265451 542.393268 1126.265451 536.4 
C 1126.265451 530.406732 1123.884301 524.658125 1119.64642 520.420245 
C 1115.408539 516.182364 1109.659933 513.801213 1103.666665 513.801213 
C 1097.673397 513.801213 1091.92479 516.182364 1087.68691 520.420245 
C 1083.449029 524.658125 1081.067878 530.406732 1081.067878 536.4 
C 1081.067878 542.393268 1083.449029 548.141875 1087.68691 552.379755 
C 1091.92479 556.617636 1097.673397 558.998787 1103.666665 558.998787 
z
" clip-path="url(#p604f8e579f)" style="fill: #a157db; fill-opacity: 0.501961; stroke: #a157db; stroke-opacity: 0.501961; stroke-width: 0.886227"/>
    <path d="M 1103.666665 432.998787 
C 1109.659933 432.998787 1115.408539 430.617636 1119.64642 426.379755 
C 1123.884301 422.141875 1126.265451 416.393268 1126.265451 410.4 
C 1126.265451 404.406732 1123.884301 398.658125 1119.64642 394.420245 
C 1115.408539 390.182364 1109.659933 387.801213 1103.666665 387.801213 
C 1097.673397 387.801213 1091.92479 390.182364 1087.68691 394.420245 
C 1083.449029 398.658125 1081.067878 404.406732 1081.067878 410.4 
C 1081.067878 416.393268 1083.449029 422.141875 1087.68691 426.379755 
C 1091.92479 430.617636 1097.673397 432.998787 1103.666665 432.998787 
z
" clip-path="url(#p604f8e579f)" style="fill: #57d3db; fill-opacity: 0.501961; stroke: #57d3db; stroke-opacity: 0.501961; stroke-width: 0.886227"/>
    <path d="M 1103.666665 432.998787 
C 1109.659933 432.998787 1115.408539 430.617636 1119.64642 426.379755 
C 1123.884301 422.141875 1126.265451 416.393268 1126.265451 410.4 
C 1126.265451 404.406732 1123.884301 398.658125 1119.64642 394.420245 
C 1115.408539 390.182364 1109.659933 387.801213 1103.666665 387.801213 
C 1097.673397 387.801213 1091.92479 390.182364 1087.68691 394.420245 
C 1083.449029 398.658125 1081.067878 404.406732 1081.067878 410.4 
C 1081.067878 416.393268 1083.449029 422.141875 1087.68691 426.379755 
C 1091.92479 430.617636 1097.673397 432.998787 1103.666665 432.998787 
z
" clip-path="url(#p604f8e579f)" style="fill: #5770db; fill-opacity: 0.501961; stroke: #5770db; stroke-opacity: 0.501961; stroke-width: 0.886227"/>
    <path d="M 1103.666665 558.998787 
C 1109.659933 558.998787 1115.408539 556.617636 1119.64642 552.379755 
C 1123.884301 548.141875 1126.265451 542.393268 1126.265451 536.4 
C 1126.265451 530.406732 1123.884301 524.658125 1119.64642 520.420245 
C 1115.408539 516.182364 1109.659933 513.801213 1103.666665 513.801213 
C 1097.673397 513.801213 1091.92479 516.182364 1087.68691 520.420245 
C 1083.449029 524.658125 1081.067878 530.406732 1081.067878 536.4 
C 1081.067878 542.393268 1083.449029 548.141875 1087.68691 552.379755 
C 1091.92479 556.617636 1097.673397 558.998787 1103.666665 558.998787 
z
" clip-path="url(#p604f8e579f)" style="fill: #a157db; fill-opacity: 0.501961; stroke: #a157db; stroke-opacity: 0.501961; stroke-width: 0.886227"/>
    <path d="M 1031.199132 390.998787 
C 1037.192401 390.998787 1042.941007 388.617636 1047.178888 384.379755 
C 1051.416768 380.141875 1053.797919 374.393268 1053.797919 368.4 
C 1053.797919 362.406732 1051.416768 356.658125 1047.178888 352.420245 
C 1042.941007 348.182364 1037.192401 345.801213 1031.199132 345.801213 
C 1025.205864 345.801213 1019.457258 348.182364 1015.219377 352.420245 
C 1010.981496 356.658125 1008.600346 362.406732 1008.600346 368.4 
C 1008.600346 374.393268 1010.981496 380.141875 1015.219377 384.379755 
C 1019.457258 388.617636 1025.205864 390.998787 1031.199132 390.998787 
z
" clip-path="url(#p604f8e579f)" style="fill: #5770db; fill-opacity: 0.501961; stroke: #5770db; stroke-opacity: 0.501961; stroke-width: 0.886227"/>
    <path d="M 886.264067 516.998787 
C 892.257336 516.998787 898.005942 514.617636 902.243823 510.379755 
C 906.481703 506.141875 908.862854 500.393268 908.862854 494.4 
C 908.862854 488.406732 906.481703 482.658125 902.243823 478.420245 
C 898.005942 474.182364 892.257336 471.801213 886.264067 471.801213 
C 880.270799 471.801213 874.522193 474.182364 870.284312 478.420245 
C 866.046431 482.658125 863.665281 488.406732 863.665281 494.4 
C 863.665281 500.393268 866.046431 506.141875 870.284312 510.379755 
C 874.522193 514.617636 880.270799 516.998787 886.264067 516.998787 
z
" clip-path="url(#p604f8e579f)" style="fill: #a157db; fill-opacity: 0.501961; stroke: #a157db; stroke-opacity: 0.501961; stroke-width: 0.886227"/>
    <path d="M 741.329002 558.998787 
C 747.322271 558.998787 753.070877 556.617636 757.308758 552.379755 
C 761.546638 548.141875 763.927789 542.393268 763.927789 536.4 
C 763.927789 530.406732 761.546638 524.658125 757.308758 520.420245 
C 753.070877 516.182364 747.322271 513.801213 741.329002 513.801213 
C 735.335734 513.801213 729.587128 516.182364 725.349247 520.420245 
C 721.111367 524.658125 718.730216 530.406732 718.730216 536.4 
C 718.730216 542.393268 721.111367 548.141875 725.349247 552.379755 
C 729.587128 556.617636 735.335734 558.998787 741.329002 558.998787 
z
" clip-path="url(#p604f8e579f)" style="fill: #a157db; fill-opacity: 0.501961; stroke: #a157db; stroke-opacity: 0.501961; stroke-width: 0.886227"/>
    <path d="M 451.458873 558.998787 
C 457.452141 558.998787 463.200747 556.617636 467.438628 552.379755 
C 471.676508 548.141875 474.057659 542.393268 474.057659 536.4 
C 474.057659 530.406732 471.676508 524.658125 467.438628 520.420245 
C 463.200747 516.182364 457.452141 513.801213 451.458873 513.801213 
C 445.465604 513.801213 439.716998 516.182364 435.479117 520.420245 
C 431.241237 524.658125 428.860086 530.406732 428.860086 536.4 
C 428.860086 542.393268 431.241237 548.141875 435.479117 552.379755 
C 439.716998 556.617636 445.465604 558.998787 451.458873 558.998787 
z
" clip-path="url(#p604f8e579f)" style="fill: #a157db; fill-opacity: 0.501961; stroke: #a157db; stroke-opacity: 0.501961; stroke-width: 0.886227"/>
    <path d="M 523.926405 516.998787 
C 529.919673 516.998787 535.66828 514.617636 539.90616 510.379755 
C 544.144041 506.141875 546.525192 500.393268 546.525192 494.4 
C 546.525192 488.406732 544.144041 482.658125 539.90616 478.420245 
C 535.66828 474.182364 529.919673 471.801213 523.926405 471.801213 
C 517.933137 471.801213 512.18453 474.182364 507.94665 478.420245 
C 503.708769 482.658125 501.327618 488.406732 501.327618 494.4 
C 501.327618 500.393268 503.708769 506.141875 507.94665 510.379755 
C 512.18453 514.617636 517.933137 516.998787 523.926405 516.998787 
z
" clip-path="url(#p604f8e579f)" style="fill: #a157db; fill-opacity: 0.501961; stroke: #a157db; stroke-opacity: 0.501961; stroke-width: 0.886227"/>
    <path d="M 89.12121 432.998787 
C 95.114478 432.998787 100.863085 430.617636 105.100965 426.379755 
C 109.338846 422.141875 111.719997 416.393268 111.719997 410.4 
C 111.719997 404.406732 109.338846 398.658125 105.100965 394.420245 
C 100.863085 390.182364 95.114478 387.801213 89.12121 387.801213 
C 83.127942 387.801213 77.379336 390.182364 73.141455 394.420245 
C 68.903574 398.658125 66.522424 404.406732 66.522424 410.4 
C 66.522424 416.393268 68.903574 422.141875 73.141455 426.379755 
C 77.379336 430.617636 83.127942 432.998787 89.12121 432.998787 
z
" clip-path="url(#p604f8e579f)" style="fill: #91db57; fill-opacity: 0.501961; stroke: #91db57; stroke-opacity: 0.501961; stroke-width: 0.886227"/>
    <path d="M 451.458873 390.998787 
C 457.452141 390.998787 463.200747 388.617636 467.438628 384.379755 
C 471.676508 380.141875 474.057659 374.393268 474.057659 368.4 
C 474.057659 362.406732 471.676508 356.658125 467.438628 352.420245 
C 463.200747 348.182364 457.452141 345.801213 451.458873 345.801213 
C 445.465604 345.801213 439.716998 348.182364 435.479117 352.420245 
C 431.241237 356.658125 428.860086 362.406732 428.860086 368.4 
C 428.860086 374.393268 431.241237 380.141875 435.479117 384.379755 
C 439.716998 388.617636 445.465604 390.998787 451.458873 390.998787 
z
" clip-path="url(#p604f8e579f)" style="fill: #a157db; fill-opacity: 0.501961; stroke: #a157db; stroke-opacity: 0.501961; stroke-width: 0.886227"/>
    <path d="M 451.458873 390.998787 
C 457.452141 390.998787 463.200747 388.617636 467.438628 384.379755 
C 471.676508 380.141875 474.057659 374.393268 474.057659 368.4 
C 474.057659 362.406732 471.676508 356.658125 467.438628 352.420245 
C 463.200747 348.182364 457.452141 345.801213 451.458873 345.801213 
C 445.465604 345.801213 439.716998 348.182364 435.479117 352.420245 
C 431.241237 356.658125 428.860086 362.406732 428.860086 368.4 
C 428.860086 374.393268 431.241237 380.141875 435.479117 384.379755 
C 439.716998 388.617636 445.465604 390.998787 451.458873 390.998787 
z
" clip-path="url(#p604f8e579f)" style="fill: #a157db; fill-opacity: 0.501961; stroke: #a157db; stroke-opacity: 0.501961; stroke-width: 0.886227"/>
    <path d="M 234.056275 432.998787 
C 240.049543 432.998787 245.79815 430.617636 250.03603 426.379755 
C 254.273911 422.141875 256.655062 416.393268 256.655062 410.4 
C 256.655062 404.406732 254.273911 398.658125 250.03603 394.420245 
C 245.79815 390.182364 240.049543 387.801213 234.056275 387.801213 
C 228.063007 387.801213 222.314401 390.182364 218.07652 394.420245 
C 213.838639 398.658125 211.457489 404.406732 211.457489 410.4 
C 211.457489 416.393268 213.838639 422.141875 218.07652 426.379755 
C 222.314401 430.617636 228.063007 432.998787 234.056275 432.998787 
z
" clip-path="url(#p604f8e579f)" style="fill: #a157db; fill-opacity: 0.501961; stroke: #a157db; stroke-opacity: 0.501961; stroke-width: 0.886227"/>
    <path d="M 306.523808 558.998787 
C 312.517076 558.998787 318.265682 556.617636 322.503563 552.379755 
C 326.741444 548.141875 329.122594 542.393268 329.122594 536.4 
C 329.122594 530.406732 326.741444 524.658125 322.503563 520.420245 
C 318.265682 516.182364 312.517076 513.801213 306.523808 513.801213 
C 300.530539 513.801213 294.781933 516.182364 290.544052 520.420245 
C 286.306172 524.658125 283.925021 530.406732 283.925021 536.4 
C 283.925021 542.393268 286.306172 548.141875 290.544052 552.379755 
C 294.781933 556.617636 300.530539 558.998787 306.523808 558.998787 
z
" clip-path="url(#p604f8e579f)" style="fill: #a157db; fill-opacity: 0.501961; stroke: #a157db; stroke-opacity: 0.501961; stroke-width: 0.886227"/>
    <path d="M 886.264067 474.998787 
C 892.257336 474.998787 898.005942 472.617636 902.243823 468.379755 
C 906.481703 464.141875 908.862854 458.393268 908.862854 452.4 
C 908.862854 446.406732 906.481703 440.658125 902.243823 436.420245 
C 898.005942 432.182364 892.257336 429.801213 886.264067 429.801213 
C 880.270799 429.801213 874.522193 432.182364 870.284312 436.420245 
C 866.046431 440.658125 863.665281 446.406732 863.665281 452.4 
C 863.665281 458.393268 866.046431 464.141875 870.284312 468.379755 
C 874.522193 472.617636 880.270799 474.998787 886.264067 474.998787 
z
" clip-path="url(#p604f8e579f)" style="fill: #a157db; fill-opacity: 0.501961; stroke: #a157db; stroke-opacity: 0.501961; stroke-width: 0.886227"/>
    <path d="M 958.7316 558.998787 
C 964.724868 558.998787 970.473474 556.617636 974.711355 552.379755 
C 978.949236 548.141875 981.330386 542.393268 981.330386 536.4 
C 981.330386 530.406732 978.949236 524.658125 974.711355 520.420245 
C 970.473474 516.182364 964.724868 513.801213 958.7316 513.801213 
C 952.738332 513.801213 946.989725 516.182364 942.751845 520.420245 
C 938.513964 524.658125 936.132813 530.406732 936.132813 536.4 
C 936.132813 542.393268 938.513964 548.141875 942.751845 552.379755 
C 946.989725 556.617636 952.738332 558.998787 958.7316 558.998787 
z
" clip-path="url(#p604f8e579f)" style="fill: #a157db; fill-opacity: 0.501961; stroke: #a157db; stroke-opacity: 0.501961; stroke-width: 0.886227"/>
   </g>
   <g id="patch_3">
    <path d="M 1161.593938 523.691138 
L 1409.687613 523.691138 
L 1409.687613 37.908862 
L 1161.593938 37.908862 
z
" style="fill: #ffffff"/>
   </g>
   <g id="text_10">
    <text style="font: 11px 'Dejavu Sans'; text-anchor: start" x="1173.793938" y="61.349487" transform="rotate(-0, 1173.793938, 61.349487)">Presunto_Responsable</text>
   </g>
   <g id="patch_4">
    <path d="M 1173.793938 119.464537 
L 1227.797738 119.464537 
L 1227.797738 65.460737 
L 1173.793938 65.460737 
z
" clip-path="url(#p405248bc75)" style="fill: #f2f2f2; stroke: #cccccc; stroke-linejoin: miter"/>
   </g>
   <g id="line2d_21">
    <path d="M 1200.795838 92.462637 
" clip-path="url(#p405248bc75)" style="fill: none; stroke: #1f77b4; stroke-opacity: 0.5; stroke-width: 1.5; stroke-linecap: square"/>
    <defs>
     <path id="m69001f5ac2" d="M 0 22.598787 
C 5.993268 22.598787 11.741875 20.217636 15.979755 15.979755 
C 20.217636 11.741875 22.598787 5.993268 22.598787 0 
C 22.598787 -5.993268 20.217636 -11.741875 15.979755 -15.979755 
C 11.741875 -20.217636 5.993268 -22.598787 0 -22.598787 
C -5.993268 -22.598787 -11.741875 -20.217636 -15.979755 -15.979755 
C -20.217636 -11.741875 -22.598787 -5.993268 -22.598787 0 
C -22.598787 5.993268 -20.217636 11.741875 -15.979755 15.979755 
C -11.741875 20.217636 -5.993268 22.598787 0 22.598787 
z
" style="stroke: #db5f57; stroke-opacity: 0.5; stroke-width: 0.886227"/>
    </defs>
    <g clip-path="url(#p405248bc75)">
     <use xlink:href="#m69001f5ac2" x="1200.795838" y="92.462637" style="fill: #db5f57; fill-opacity: 0.5; stroke: #db5f57; stroke-opacity: 0.5; stroke-width: 0.886227"/>
    </g>
   </g>
   <g id="text_11">
    <text style="font: 8.8px 'Dejavu Sans'; text-anchor: start" x="1230.797738" y="94.890887" transform="rotate(-0, 1230.797738, 94.890887)">Agente del Estado</text>
   </g>
   <g id="patch_5">
    <path d="M 1173.793938 175.468337 
L 1227.797738 175.468337 
L 1227.797738 121.464537 
L 1173.793938 121.464537 
z
" clip-path="url(#p934a4a1bdb)" style="fill: #f2f2f2; stroke: #cccccc; stroke-linejoin: miter"/>
   </g>
   <g id="line2d_22">
    <path d="M 1200.795838 148.466437 
" clip-path="url(#p934a4a1bdb)" style="fill: none; stroke: #1f77b4; stroke-opacity: 0.5; stroke-width: 1.5; stroke-linecap: square"/>
    <defs>
     <path id="m7098c8b20c" d="M 0 22.598787 
C 5.993268 22.598787 11.741875 20.217636 15.979755 15.979755 
C 20.217636 11.741875 22.598787 5.993268 22.598787 0 
C 22.598787 -5.993268 20.217636 -11.741875 15.979755 -15.979755 
C 11.741875 -20.217636 5.993268 -22.598787 0 -22.598787 
C -5.993268 -22.598787 -11.741875 -20.217636 -15.979755 -15.979755 
C -20.217636 -11.741875 -22.598787 -5.993268 -22.598787 0 
C -22.598787 5.993268 -20.217636 11.741875 -15.979755 15.979755 
C -11.741875 20.217636 -5.993268 22.598787 0 22.598787 
z
" style="stroke: #dbc257; stroke-opacity: 0.5; stroke-width: 0.886227"/>
    </defs>
    <g clip-path="url(#p934a4a1bdb)">
     <use xlink:href="#m7098c8b20c" x="1200.795838" y="148.466437" style="fill: #dbc257; fill-opacity: 0.5; stroke: #dbc257; stroke-opacity: 0.5; stroke-width: 0.886227"/>
    </g>
   </g>
   <g id="text_12">
    <text style="font: 8.8px 'Dejavu Sans'; text-anchor: start" x="1230.797738" y="150.894687" transform="rotate(-0, 1230.797738, 150.894687)">Agente del Estado - Grupo Paramilitar</text>
   </g>
   <g id="patch_6">
    <path d="M 1173.793938 231.472137 
L 1227.797738 231.472137 
L 1227.797738 177.468337 
L 1173.793938 177.468337 
z
" clip-path="url(#p168d106fa9)" style="fill: #f2f2f2; stroke: #cccccc; stroke-linejoin: miter"/>
   </g>
   <g id="line2d_23">
    <path d="M 1200.795838 204.470237 
" clip-path="url(#p168d106fa9)" style="fill: none; stroke: #1f77b4; stroke-opacity: 0.5; stroke-width: 1.5; stroke-linecap: square"/>
    <defs>
     <path id="m2b2fc05abc" d="M 0 22.598787 
C 5.993268 22.598787 11.741875 20.217636 15.979755 15.979755 
C 20.217636 11.741875 22.598787 5.993268 22.598787 0 
C 22.598787 -5.993268 20.217636 -11.741875 15.979755 -15.979755 
C 11.741875 -20.217636 5.993268 -22.598787 0 -22.598787 
C -5.993268 -22.598787 -11.741875 -20.217636 -15.979755 -15.979755 
C -20.217636 -11.741875 -22.598787 -5.993268 -22.598787 0 
C -22.598787 5.993268 -20.217636 11.741875 -15.979755 15.979755 
C -11.741875 20.217636 -5.993268 22.598787 0 22.598787 
z
" style="stroke: #91db57; stroke-opacity: 0.5; stroke-width: 0.886227"/>
    </defs>
    <g clip-path="url(#p168d106fa9)">
     <use xlink:href="#m2b2fc05abc" x="1200.795838" y="204.470237" style="fill: #91db57; fill-opacity: 0.5; stroke: #91db57; stroke-opacity: 0.5; stroke-width: 0.886227"/>
    </g>
   </g>
   <g id="text_13">
    <text style="font: 8.8px 'Dejavu Sans'; text-anchor: start" x="1230.797738" y="206.898487" transform="rotate(-0, 1230.797738, 206.898487)">Bandolerismo</text>
   </g>
   <g id="patch_7">
    <path d="M 1173.793938 287.475937 
L 1227.797738 287.475937 
L 1227.797738 233.472137 
L 1173.793938 233.472137 
z
" clip-path="url(#p78b36653c2)" style="fill: #f2f2f2; stroke: #cccccc; stroke-linejoin: miter"/>
   </g>
   <g id="line2d_24">
    <path d="M 1200.795838 260.474037 
" clip-path="url(#p78b36653c2)" style="fill: none; stroke: #1f77b4; stroke-opacity: 0.5; stroke-width: 1.5; stroke-linecap: square"/>
    <defs>
     <path id="mb0fd3e897d" d="M 0 22.598787 
C 5.993268 22.598787 11.741875 20.217636 15.979755 15.979755 
C 20.217636 11.741875 22.598787 5.993268 22.598787 0 
C 22.598787 -5.993268 20.217636 -11.741875 15.979755 -15.979755 
C 11.741875 -20.217636 5.993268 -22.598787 0 -22.598787 
C -5.993268 -22.598787 -11.741875 -20.217636 -15.979755 -15.979755 
C -20.217636 -11.741875 -22.598787 -5.993268 -22.598787 0 
C -22.598787 5.993268 -20.217636 11.741875 -15.979755 15.979755 
C -11.741875 20.217636 -5.993268 22.598787 0 22.598787 
z
" style="stroke: #57db80; stroke-opacity: 0.5; stroke-width: 0.886227"/>
    </defs>
    <g clip-path="url(#p78b36653c2)">
     <use xlink:href="#mb0fd3e897d" x="1200.795838" y="260.474037" style="fill: #57db80; fill-opacity: 0.5; stroke: #57db80; stroke-opacity: 0.5; stroke-width: 0.886227"/>
    </g>
   </g>
   <g id="text_14">
    <text style="font: 8.8px 'Dejavu Sans'; text-anchor: start" x="1230.797738" y="262.902287" transform="rotate(-0, 1230.797738, 262.902287)">Desconocido</text>
   </g>
   <g id="patch_8">
    <path d="M 1173.793938 343.479738 
L 1227.797738 343.479738 
L 1227.797738 289.475937 
L 1173.793938 289.475937 
z
" clip-path="url(#p2517146f9f)" style="fill: #f2f2f2; stroke: #cccccc; stroke-linejoin: miter"/>
   </g>
   <g id="line2d_25">
    <path d="M 1200.795838 316.477838 
" clip-path="url(#p2517146f9f)" style="fill: none; stroke: #1f77b4; stroke-opacity: 0.5; stroke-width: 1.5; stroke-linecap: square"/>
    <defs>
     <path id="mff81f29da2" d="M 0 22.598787 
C 5.993268 22.598787 11.741875 20.217636 15.979755 15.979755 
C 20.217636 11.741875 22.598787 5.993268 22.598787 0 
C 22.598787 -5.993268 20.217636 -11.741875 15.979755 -15.979755 
C 11.741875 -20.217636 5.993268 -22.598787 0 -22.598787 
C -5.993268 -22.598787 -11.741875 -20.217636 -15.979755 -15.979755 
C -20.217636 -11.741875 -22.598787 -5.993268 -22.598787 0 
C -22.598787 5.993268 -20.217636 11.741875 -15.979755 15.979755 
C -11.741875 20.217636 -5.993268 22.598787 0 22.598787 
z
" style="stroke: #57d3db; stroke-opacity: 0.5; stroke-width: 0.886227"/>
    </defs>
    <g clip-path="url(#p2517146f9f)">
     <use xlink:href="#mff81f29da2" x="1200.795838" y="316.477838" style="fill: #57d3db; fill-opacity: 0.5; stroke: #57d3db; stroke-opacity: 0.5; stroke-width: 0.886227"/>
    </g>
   </g>
   <g id="text_15">
    <text style="font: 8.8px 'Dejavu Sans'; text-anchor: start" x="1230.797738" y="318.906088" transform="rotate(-0, 1230.797738, 318.906088)">Grupo Armado No Identificado</text>
   </g>
   <g id="patch_9">
    <path d="M 1173.793938 399.483538 
L 1227.797738 399.483538 
L 1227.797738 345.479738 
L 1173.793938 345.479738 
z
" clip-path="url(#p55b2c27c94)" style="fill: #f2f2f2; stroke: #cccccc; stroke-linejoin: miter"/>
   </g>
   <g id="line2d_26">
    <path d="M 1200.795838 372.481638 
" clip-path="url(#p55b2c27c94)" style="fill: none; stroke: #1f77b4; stroke-opacity: 0.5; stroke-width: 1.5; stroke-linecap: square"/>
    <defs>
     <path id="m87a5bdf7a1" d="M 0 22.598787 
C 5.993268 22.598787 11.741875 20.217636 15.979755 15.979755 
C 20.217636 11.741875 22.598787 5.993268 22.598787 0 
C 22.598787 -5.993268 20.217636 -11.741875 15.979755 -15.979755 
C 11.741875 -20.217636 5.993268 -22.598787 0 -22.598787 
C -5.993268 -22.598787 -11.741875 -20.217636 -15.979755 -15.979755 
C -20.217636 -11.741875 -22.598787 -5.993268 -22.598787 0 
C -22.598787 5.993268 -20.217636 11.741875 -15.979755 15.979755 
C -11.741875 20.217636 -5.993268 22.598787 0 22.598787 
z
" style="stroke: #5770db; stroke-opacity: 0.5; stroke-width: 0.886227"/>
    </defs>
    <g clip-path="url(#p55b2c27c94)">
     <use xlink:href="#m87a5bdf7a1" x="1200.795838" y="372.481638" style="fill: #5770db; fill-opacity: 0.5; stroke: #5770db; stroke-opacity: 0.5; stroke-width: 0.886227"/>
    </g>
   </g>
   <g id="text_16">
    <text style="font: 8.8px 'Dejavu Sans'; text-anchor: start" x="1230.797738" y="374.909888" transform="rotate(-0, 1230.797738, 374.909888)">Grupo Paramilitar</text>
   </g>
   <g id="patch_10">
    <path d="M 1173.793938 455.487338 
L 1227.797738 455.487338 
L 1227.797738 401.483538 
L 1173.793938 401.483538 
z
" clip-path="url(#p2161be4349)" style="fill: #f2f2f2; stroke: #cccccc; stroke-linejoin: miter"/>
   </g>
   <g id="line2d_27">
    <path d="M 1200.795838 428.485438 
" clip-path="url(#p2161be4349)" style="fill: none; stroke: #1f77b4; stroke-opacity: 0.5; stroke-width: 1.5; stroke-linecap: square"/>
    <defs>
     <path id="m4eb6b852eb" d="M 0 22.598787 
C 5.993268 22.598787 11.741875 20.217636 15.979755 15.979755 
C 20.217636 11.741875 22.598787 5.993268 22.598787 0 
C 22.598787 -5.993268 20.217636 -11.741875 15.979755 -15.979755 
C 11.741875 -20.217636 5.993268 -22.598787 0 -22.598787 
C -5.993268 -22.598787 -11.741875 -20.217636 -15.979755 -15.979755 
C -20.217636 -11.741875 -22.598787 -5.993268 -22.598787 0 
C -22.598787 5.993268 -20.217636 11.741875 -15.979755 15.979755 
C -11.741875 20.217636 -5.993268 22.598787 0 22.598787 
z
" style="stroke: #a157db; stroke-opacity: 0.5; stroke-width: 0.886227"/>
    </defs>
    <g clip-path="url(#p2161be4349)">
     <use xlink:href="#m4eb6b852eb" x="1200.795838" y="428.485438" style="fill: #a157db; fill-opacity: 0.5; stroke: #a157db; stroke-opacity: 0.5; stroke-width: 0.886227"/>
    </g>
   </g>
   <g id="text_17">
    <text style="font: 8.8px 'Dejavu Sans'; text-anchor: start" x="1230.797738" y="430.913688" transform="rotate(-0, 1230.797738, 430.913688)">Guerrilla</text>
   </g>
   <g id="patch_11">
    <path d="M 1173.793938 511.491138 
L 1227.797738 511.491138 
L 1227.797738 457.487338 
L 1173.793938 457.487338 
z
" clip-path="url(#pc6f674c342)" style="fill: #f2f2f2; stroke: #cccccc; stroke-linejoin: miter"/>
   </g>
   <g id="line2d_28">
    <path d="M 1200.795838 484.489238 
" clip-path="url(#pc6f674c342)" style="fill: none; stroke: #1f77b4; stroke-opacity: 0.5; stroke-width: 1.5; stroke-linecap: square"/>
    <defs>
     <path id="m139c9eced2" d="M 0 22.598787 
C 5.993268 22.598787 11.741875 20.217636 15.979755 15.979755 
C 20.217636 11.741875 22.598787 5.993268 22.598787 0 
C 22.598787 -5.993268 20.217636 -11.741875 15.979755 -15.979755 
C 11.741875 -20.217636 5.993268 -22.598787 0 -22.598787 
C -5.993268 -22.598787 -11.741875 -20.217636 -15.979755 -15.979755 
C -20.217636 -11.741875 -22.598787 -5.993268 -22.598787 0 
C -22.598787 5.993268 -20.217636 11.741875 -15.979755 15.979755 
C -11.741875 20.217636 -5.993268 22.598787 0 22.598787 
z
" style="stroke: #db57b2; stroke-opacity: 0.5; stroke-width: 0.886227"/>
    </defs>
    <g clip-path="url(#pc6f674c342)">
     <use xlink:href="#m139c9eced2" x="1200.795838" y="484.489238" style="fill: #db57b2; fill-opacity: 0.5; stroke: #db57b2; stroke-opacity: 0.5; stroke-width: 0.886227"/>
    </g>
   </g>
   <g id="text_18">
    <text style="font: 8.8px 'Dejavu Sans'; text-anchor: start" x="1230.797738" y="487.041925" transform="rotate(-0, 1230.797738, 487.041925)">Otro Cul?</text>
   </g>
  </g>
 </g>
 <defs>
  <clipPath id="p604f8e579f">
   <rect x="38.393938" y="7.2" width="1116" height="554.4"/>
  </clipPath>
  <clipPath id="p405248bc75">
   <path d="M 1173.793938 119.464537 
L 1173.793938 65.460737 
L 1227.797738 65.460737 
L 1227.797738 119.464537 
"/>
  </clipPath>
  <clipPath id="p934a4a1bdb">
   <path d="M 1173.793938 175.468337 
L 1173.793938 121.464537 
L 1227.797738 121.464537 
L 1227.797738 175.468337 
"/>
  </clipPath>
  <clipPath id="p168d106fa9">
   <path d="M 1173.793938 231.472137 
L 1173.793938 177.468337 
L 1227.797738 177.468337 
L 1227.797738 231.472137 
"/>
  </clipPath>
  <clipPath id="p78b36653c2">
   <path d="M 1173.793938 287.475937 
L 1173.793938 233.472137 
L 1227.797738 233.472137 
L 1227.797738 287.475937 
"/>
  </clipPath>
  <clipPath id="p2517146f9f">
   <path d="M 1173.793938 343.479738 
L 1173.793938 289.475937 
L 1227.797738 289.475937 
L 1227.797738 343.479738 
"/>
  </clipPath>
  <clipPath id="p55b2c27c94">
   <path d="M 1173.793938 399.483538 
L 1173.793938 345.479738 
L 1227.797738 345.479738 
L 1227.797738 399.483538 
"/>
  </clipPath>
  <clipPath id="p2161be4349">
   <path d="M 1173.793938 455.487338 
L 1173.793938 401.483538 
L 1227.797738 401.483538 
L 1227.797738 455.487338 
"/>
  </clipPath>
  <clipPath id="pc6f674c342">
   <path d="M 1173.793938 511.491138 
L 1173.793938 457.487338 
L 1227.797738 457.487338 
L 1227.797738 511.491138 
"/>
  </clipPath>
 </defs>
</svg>
